<mxfile host="app.diagrams.net" modified="2022-12-12T10:40:42.684Z" agent="5.0 (X11; Linux x86_64) AppleWebKit/537.36 (KHTML, like Gecko) Chrome/107.0.0.0 Safari/537.36" version="20.6.2" etag="K0YE9a5n95n60v52wku7" type="github">
  <diagram id="D_JLjPBvSt8yhpvciSec" name="Page-1">
    <mxGraphModel dx="2212" dy="586" grid="0" gridSize="10" guides="1" tooltips="1" connect="1" arrows="1" fold="1" page="1" pageScale="1" pageWidth="827" pageHeight="1169" math="0" shadow="0">
      <root>
        <mxCell id="0" />
        <mxCell id="1" parent="0" />
        <mxCell id="z_jNy_ZaxBvfYAeNrPN4-47" value="" style="group" vertex="1" connectable="0" parent="1">
          <mxGeometry x="56" y="178.99501328043414" width="716" height="641.2549867195659" as="geometry" />
        </mxCell>
        <mxCell id="z_jNy_ZaxBvfYAeNrPN4-1" value="&lt;font style=&quot;font-size: 24px;&quot;&gt;Placement Portal&lt;/font&gt;" style="ellipse;whiteSpace=wrap;html=1;aspect=fixed;" vertex="1" parent="z_jNy_ZaxBvfYAeNrPN4-47">
          <mxGeometry x="256" y="176.25498671956586" width="220" height="220" as="geometry" />
        </mxCell>
        <mxCell id="z_jNy_ZaxBvfYAeNrPN4-7" style="edgeStyle=none;shape=connector;curved=1;rounded=0;orthogonalLoop=1;jettySize=auto;html=1;exitX=1;exitY=0.5;exitDx=0;exitDy=0;entryX=0.232;entryY=0.07;entryDx=0;entryDy=0;entryPerimeter=0;labelBackgroundColor=default;strokeColor=default;fontFamily=Helvetica;fontSize=24;fontColor=default;endArrow=classic;" edge="1" parent="z_jNy_ZaxBvfYAeNrPN4-47" source="z_jNy_ZaxBvfYAeNrPN4-2" target="z_jNy_ZaxBvfYAeNrPN4-1">
          <mxGeometry relative="1" as="geometry" />
        </mxCell>
        <mxCell id="z_jNy_ZaxBvfYAeNrPN4-11" style="edgeStyle=none;shape=connector;curved=1;rounded=0;orthogonalLoop=1;jettySize=auto;html=1;exitX=0.75;exitY=1;exitDx=0;exitDy=0;labelBackgroundColor=default;strokeColor=default;fontFamily=Helvetica;fontSize=14;fontColor=default;endArrow=classic;" edge="1" parent="z_jNy_ZaxBvfYAeNrPN4-47" source="z_jNy_ZaxBvfYAeNrPN4-2" target="z_jNy_ZaxBvfYAeNrPN4-1">
          <mxGeometry relative="1" as="geometry" />
        </mxCell>
        <mxCell id="z_jNy_ZaxBvfYAeNrPN4-2" value="Student" style="rounded=0;whiteSpace=wrap;html=1;fontSize=24;" vertex="1" parent="z_jNy_ZaxBvfYAeNrPN4-47">
          <mxGeometry y="18.254986719565863" width="120" height="60" as="geometry" />
        </mxCell>
        <mxCell id="z_jNy_ZaxBvfYAeNrPN4-21" style="edgeStyle=none;shape=connector;curved=1;rounded=0;orthogonalLoop=1;jettySize=auto;html=1;exitX=0;exitY=0.5;exitDx=0;exitDy=0;entryX=0.5;entryY=1;entryDx=0;entryDy=0;labelBackgroundColor=default;strokeColor=default;fontFamily=Helvetica;fontSize=14;fontColor=default;endArrow=classic;" edge="1" parent="z_jNy_ZaxBvfYAeNrPN4-47" source="z_jNy_ZaxBvfYAeNrPN4-1" target="z_jNy_ZaxBvfYAeNrPN4-2">
          <mxGeometry relative="1" as="geometry" />
        </mxCell>
        <mxCell id="z_jNy_ZaxBvfYAeNrPN4-23" style="edgeStyle=none;shape=connector;curved=1;rounded=0;orthogonalLoop=1;jettySize=auto;html=1;exitX=0;exitY=1;exitDx=0;exitDy=0;labelBackgroundColor=default;strokeColor=default;fontFamily=Helvetica;fontSize=14;fontColor=default;endArrow=classic;" edge="1" parent="z_jNy_ZaxBvfYAeNrPN4-47" source="z_jNy_ZaxBvfYAeNrPN4-3" target="z_jNy_ZaxBvfYAeNrPN4-1">
          <mxGeometry relative="1" as="geometry" />
        </mxCell>
        <mxCell id="z_jNy_ZaxBvfYAeNrPN4-25" style="edgeStyle=none;shape=connector;curved=1;rounded=0;orthogonalLoop=1;jettySize=auto;html=1;exitX=0.5;exitY=1;exitDx=0;exitDy=0;entryX=0.988;entryY=0.322;entryDx=0;entryDy=0;entryPerimeter=0;labelBackgroundColor=default;strokeColor=default;fontFamily=Helvetica;fontSize=14;fontColor=default;endArrow=classic;" edge="1" parent="z_jNy_ZaxBvfYAeNrPN4-47" source="z_jNy_ZaxBvfYAeNrPN4-3" target="z_jNy_ZaxBvfYAeNrPN4-1">
          <mxGeometry relative="1" as="geometry" />
        </mxCell>
        <mxCell id="z_jNy_ZaxBvfYAeNrPN4-31" style="edgeStyle=none;shape=connector;curved=1;rounded=0;orthogonalLoop=1;jettySize=auto;html=1;exitX=0;exitY=0.5;exitDx=0;exitDy=0;entryX=0.692;entryY=0.023;entryDx=0;entryDy=0;entryPerimeter=0;labelBackgroundColor=default;strokeColor=default;fontFamily=Helvetica;fontSize=14;fontColor=default;endArrow=classic;" edge="1" parent="z_jNy_ZaxBvfYAeNrPN4-47" source="z_jNy_ZaxBvfYAeNrPN4-3" target="z_jNy_ZaxBvfYAeNrPN4-1">
          <mxGeometry relative="1" as="geometry" />
        </mxCell>
        <mxCell id="z_jNy_ZaxBvfYAeNrPN4-3" value="Recruiter" style="rounded=0;whiteSpace=wrap;html=1;fontSize=24;" vertex="1" parent="z_jNy_ZaxBvfYAeNrPN4-47">
          <mxGeometry x="596" y="21.254986719565863" width="120" height="60" as="geometry" />
        </mxCell>
        <mxCell id="z_jNy_ZaxBvfYAeNrPN4-33" style="edgeStyle=none;shape=connector;curved=1;rounded=0;orthogonalLoop=1;jettySize=auto;html=1;exitX=0;exitY=0;exitDx=0;exitDy=0;labelBackgroundColor=default;strokeColor=default;fontFamily=Helvetica;fontSize=14;fontColor=default;endArrow=classic;" edge="1" parent="z_jNy_ZaxBvfYAeNrPN4-47" source="z_jNy_ZaxBvfYAeNrPN4-4" target="z_jNy_ZaxBvfYAeNrPN4-1">
          <mxGeometry relative="1" as="geometry" />
        </mxCell>
        <mxCell id="z_jNy_ZaxBvfYAeNrPN4-45" style="edgeStyle=none;shape=connector;curved=1;rounded=0;orthogonalLoop=1;jettySize=auto;html=1;exitX=0.75;exitY=0;exitDx=0;exitDy=0;entryX=0.931;entryY=0.777;entryDx=0;entryDy=0;entryPerimeter=0;labelBackgroundColor=default;strokeColor=default;fontFamily=Helvetica;fontSize=14;fontColor=default;endArrow=classic;" edge="1" parent="z_jNy_ZaxBvfYAeNrPN4-47" source="z_jNy_ZaxBvfYAeNrPN4-4" target="z_jNy_ZaxBvfYAeNrPN4-1">
          <mxGeometry relative="1" as="geometry" />
        </mxCell>
        <mxCell id="z_jNy_ZaxBvfYAeNrPN4-4" value="Coordinator" style="rounded=0;whiteSpace=wrap;html=1;fontSize=24;" vertex="1" parent="z_jNy_ZaxBvfYAeNrPN4-47">
          <mxGeometry x="448" y="581.2549867195659" width="148" height="60" as="geometry" />
        </mxCell>
        <mxCell id="z_jNy_ZaxBvfYAeNrPN4-10" value="edit profile" style="text;html=1;align=center;verticalAlign=middle;resizable=0;points=[];autosize=1;strokeColor=none;fillColor=none;fontSize=14;fontFamily=Helvetica;fontColor=default;rotation=35;" vertex="1" parent="z_jNy_ZaxBvfYAeNrPN4-47">
          <mxGeometry x="173" y="88.25498671956586" width="83" height="29" as="geometry" />
        </mxCell>
        <mxCell id="z_jNy_ZaxBvfYAeNrPN4-12" value="apply for drive" style="text;html=1;align=center;verticalAlign=middle;resizable=0;points=[];autosize=1;strokeColor=none;fillColor=none;fontSize=14;fontFamily=Helvetica;fontColor=default;rotation=30;" vertex="1" parent="z_jNy_ZaxBvfYAeNrPN4-47">
          <mxGeometry x="128" y="112.25498671956586" width="106" height="29" as="geometry" />
        </mxCell>
        <mxCell id="z_jNy_ZaxBvfYAeNrPN4-19" value="" style="edgeStyle=segmentEdgeStyle;endArrow=classic;html=1;rounded=0;labelBackgroundColor=default;strokeColor=default;fontFamily=Helvetica;fontSize=14;fontColor=default;shape=connector;curved=1;entryX=0.34;entryY=1.036;entryDx=0;entryDy=0;entryPerimeter=0;exitX=0;exitY=0.5;exitDx=0;exitDy=0;" edge="1" parent="z_jNy_ZaxBvfYAeNrPN4-47" source="z_jNy_ZaxBvfYAeNrPN4-1" target="z_jNy_ZaxBvfYAeNrPN4-2">
          <mxGeometry width="50" height="50" relative="1" as="geometry">
            <mxPoint x="312" y="303.25498671956586" as="sourcePoint" />
            <mxPoint x="362" y="253.25498671956586" as="targetPoint" />
          </mxGeometry>
        </mxCell>
        <mxCell id="z_jNy_ZaxBvfYAeNrPN4-20" value="get resume&lt;br&gt;" style="text;html=1;align=center;verticalAlign=middle;resizable=0;points=[];autosize=1;strokeColor=none;fillColor=none;fontSize=14;fontFamily=Helvetica;fontColor=default;rotation=30;" vertex="1" parent="z_jNy_ZaxBvfYAeNrPN4-47">
          <mxGeometry x="73" y="255.25498671956586" width="88" height="29" as="geometry" />
        </mxCell>
        <mxCell id="z_jNy_ZaxBvfYAeNrPN4-22" value="view result" style="text;html=1;align=center;verticalAlign=middle;resizable=0;points=[];autosize=1;strokeColor=none;fillColor=none;fontSize=14;fontFamily=Helvetica;fontColor=default;rotation=45;" vertex="1" parent="z_jNy_ZaxBvfYAeNrPN4-47">
          <mxGeometry x="75" y="152.25498671956586" width="84" height="29" as="geometry" />
        </mxCell>
        <mxCell id="z_jNy_ZaxBvfYAeNrPN4-24" value="create a&amp;nbsp; drive" style="text;html=1;align=center;verticalAlign=middle;resizable=0;points=[];autosize=1;strokeColor=none;fillColor=none;fontSize=14;fontFamily=Helvetica;fontColor=default;rotation=-40;" vertex="1" parent="z_jNy_ZaxBvfYAeNrPN4-47">
          <mxGeometry x="454" y="132.25498671956586" width="107" height="29" as="geometry" />
        </mxCell>
        <mxCell id="z_jNy_ZaxBvfYAeNrPN4-26" value="give feedback and query&lt;br&gt;" style="text;html=1;align=center;verticalAlign=middle;resizable=0;points=[];autosize=1;strokeColor=none;fillColor=none;fontSize=14;fontFamily=Helvetica;fontColor=default;rotation=-45;" vertex="1" parent="z_jNy_ZaxBvfYAeNrPN4-47">
          <mxGeometry x="452" y="156.25498671956586" width="171" height="29" as="geometry" />
        </mxCell>
        <mxCell id="z_jNy_ZaxBvfYAeNrPN4-29" value="" style="edgeStyle=segmentEdgeStyle;endArrow=classic;html=1;rounded=0;labelBackgroundColor=default;strokeColor=default;fontFamily=Helvetica;fontSize=14;fontColor=default;shape=connector;curved=1;entryX=0;entryY=0.25;entryDx=0;entryDy=0;exitX=0.5;exitY=0;exitDx=0;exitDy=0;" edge="1" parent="z_jNy_ZaxBvfYAeNrPN4-47" source="z_jNy_ZaxBvfYAeNrPN4-1" target="z_jNy_ZaxBvfYAeNrPN4-3">
          <mxGeometry width="50" height="50" relative="1" as="geometry">
            <mxPoint x="312" y="286.25498671956586" as="sourcePoint" />
            <mxPoint x="362" y="236.25498671956586" as="targetPoint" />
            <Array as="points">
              <mxPoint x="366" y="36.25498671956586" />
            </Array>
          </mxGeometry>
        </mxCell>
        <mxCell id="z_jNy_ZaxBvfYAeNrPN4-30" value="get applied student&#39;s list&lt;br&gt;" style="text;html=1;align=center;verticalAlign=middle;resizable=0;points=[];autosize=1;strokeColor=none;fillColor=none;fontSize=14;fontFamily=Helvetica;fontColor=default;rotation=-48;" vertex="1" parent="z_jNy_ZaxBvfYAeNrPN4-47">
          <mxGeometry x="309" y="57.25498671956586" width="167" height="29" as="geometry" />
        </mxCell>
        <mxCell id="z_jNy_ZaxBvfYAeNrPN4-32" value="post result" style="text;html=1;align=center;verticalAlign=middle;resizable=0;points=[];autosize=1;strokeColor=none;fillColor=none;fontSize=14;fontFamily=Helvetica;fontColor=default;rotation=-35;" vertex="1" parent="z_jNy_ZaxBvfYAeNrPN4-47">
          <mxGeometry x="432" y="99.25498671956586" width="83" height="29" as="geometry" />
        </mxCell>
        <mxCell id="z_jNy_ZaxBvfYAeNrPN4-34" value="create notice&lt;br&gt;" style="text;html=1;align=center;verticalAlign=middle;resizable=0;points=[];autosize=1;strokeColor=none;fillColor=none;fontSize=14;fontFamily=Helvetica;fontColor=default;rotation=75;" vertex="1" parent="z_jNy_ZaxBvfYAeNrPN4-47">
          <mxGeometry x="378" y="451.25498671956586" width="98" height="29" as="geometry" />
        </mxCell>
        <mxCell id="z_jNy_ZaxBvfYAeNrPN4-36" value="view student detail&lt;br&gt;" style="text;html=1;align=center;verticalAlign=middle;resizable=0;points=[];autosize=1;strokeColor=none;fillColor=none;fontSize=14;fontFamily=Helvetica;fontColor=default;rotation=75;" vertex="1" parent="z_jNy_ZaxBvfYAeNrPN4-47">
          <mxGeometry x="413" y="455.25498671956586" width="133" height="29" as="geometry" />
        </mxCell>
        <mxCell id="z_jNy_ZaxBvfYAeNrPN4-38" style="edgeStyle=none;shape=connector;curved=1;rounded=0;orthogonalLoop=1;jettySize=auto;html=1;exitX=1;exitY=1;exitDx=0;exitDy=0;entryX=0.25;entryY=0;entryDx=0;entryDy=0;labelBackgroundColor=default;strokeColor=default;fontFamily=Helvetica;fontSize=14;fontColor=default;endArrow=classic;" edge="1" parent="z_jNy_ZaxBvfYAeNrPN4-47" source="z_jNy_ZaxBvfYAeNrPN4-1" target="z_jNy_ZaxBvfYAeNrPN4-4">
          <mxGeometry relative="1" as="geometry" />
        </mxCell>
        <mxCell id="z_jNy_ZaxBvfYAeNrPN4-40" value="" style="edgeStyle=segmentEdgeStyle;endArrow=classic;html=1;rounded=0;labelBackgroundColor=default;strokeColor=default;fontFamily=Helvetica;fontSize=14;fontColor=default;shape=connector;curved=1;entryX=0;entryY=0.25;entryDx=0;entryDy=0;" edge="1" parent="z_jNy_ZaxBvfYAeNrPN4-47" source="z_jNy_ZaxBvfYAeNrPN4-1" target="z_jNy_ZaxBvfYAeNrPN4-4">
          <mxGeometry width="50" height="50" relative="1" as="geometry">
            <mxPoint x="312" y="474.25498671956586" as="sourcePoint" />
            <mxPoint x="388" y="614.2549867195659" as="targetPoint" />
            <Array as="points">
              <mxPoint x="374" y="590.2549867195659" />
              <mxPoint x="382" y="590.2549867195659" />
              <mxPoint x="382" y="596.2549867195659" />
            </Array>
          </mxGeometry>
        </mxCell>
        <mxCell id="z_jNy_ZaxBvfYAeNrPN4-42" value="" style="edgeStyle=segmentEdgeStyle;endArrow=classic;html=1;rounded=0;labelBackgroundColor=default;strokeColor=default;fontFamily=Helvetica;fontSize=14;fontColor=default;shape=connector;curved=1;exitX=1;exitY=0;exitDx=0;exitDy=0;" edge="1" parent="z_jNy_ZaxBvfYAeNrPN4-47" source="z_jNy_ZaxBvfYAeNrPN4-4">
          <mxGeometry width="50" height="50" relative="1" as="geometry">
            <mxPoint x="561" y="446.25498671956586" as="sourcePoint" />
            <mxPoint x="478" y="301.25498671956586" as="targetPoint" />
            <Array as="points">
              <mxPoint x="573" y="581.2549867195659" />
              <mxPoint x="573" y="344.25498671956586" />
              <mxPoint x="478" y="344.25498671956586" />
            </Array>
          </mxGeometry>
        </mxCell>
        <mxCell id="z_jNy_ZaxBvfYAeNrPN4-43" value="give red flag" style="text;html=1;align=center;verticalAlign=middle;resizable=0;points=[];autosize=1;strokeColor=none;fillColor=none;fontSize=14;fontFamily=Helvetica;fontColor=default;rotation=75;" vertex="1" parent="z_jNy_ZaxBvfYAeNrPN4-47">
          <mxGeometry x="534" y="374.25498671956586" width="94" height="29" as="geometry" />
        </mxCell>
        <mxCell id="z_jNy_ZaxBvfYAeNrPN4-44" value="view drive and &lt;br&gt;applied student details" style="text;html=1;align=center;verticalAlign=middle;resizable=0;points=[];autosize=1;strokeColor=none;fillColor=none;fontSize=14;fontFamily=Helvetica;fontColor=default;rotation=85;" vertex="1" parent="z_jNy_ZaxBvfYAeNrPN4-47">
          <mxGeometry x="269" y="495.25498671956586" width="157" height="46" as="geometry" />
        </mxCell>
        <mxCell id="z_jNy_ZaxBvfYAeNrPN4-46" value="send student list to recruiter" style="text;html=1;align=center;verticalAlign=middle;resizable=0;points=[];autosize=1;strokeColor=none;fillColor=none;fontSize=14;fontFamily=Helvetica;fontColor=default;rotation=75;" vertex="1" parent="z_jNy_ZaxBvfYAeNrPN4-47">
          <mxGeometry x="438" y="438.25498671956586" width="190" height="29" as="geometry" />
        </mxCell>
        <mxCell id="z_jNy_ZaxBvfYAeNrPN4-121" value="" style="group" vertex="1" connectable="0" parent="1">
          <mxGeometry x="-245" y="2065" width="1306.15" height="805.6500000000001" as="geometry" />
        </mxCell>
        <mxCell id="z_jNy_ZaxBvfYAeNrPN4-50" style="edgeStyle=none;shape=connector;curved=1;rounded=0;orthogonalLoop=1;jettySize=auto;html=1;exitX=1;exitY=0.5;exitDx=0;exitDy=0;labelBackgroundColor=default;strokeColor=default;fontFamily=Helvetica;fontSize=24;fontColor=default;endArrow=classic;" edge="1" parent="z_jNy_ZaxBvfYAeNrPN4-121" source="z_jNy_ZaxBvfYAeNrPN4-52">
          <mxGeometry relative="1" as="geometry">
            <mxPoint x="293" y="170" as="targetPoint" />
          </mxGeometry>
        </mxCell>
        <mxCell id="z_jNy_ZaxBvfYAeNrPN4-52" value="Student" style="rounded=0;whiteSpace=wrap;html=1;fontSize=24;" vertex="1" parent="z_jNy_ZaxBvfYAeNrPN4-121">
          <mxGeometry y="119" width="120" height="60" as="geometry" />
        </mxCell>
        <mxCell id="z_jNy_ZaxBvfYAeNrPN4-53" style="edgeStyle=none;shape=connector;curved=1;rounded=0;orthogonalLoop=1;jettySize=auto;html=1;entryX=0.5;entryY=1;entryDx=0;entryDy=0;labelBackgroundColor=default;strokeColor=default;fontFamily=Helvetica;fontSize=14;fontColor=default;endArrow=classic;" edge="1" parent="z_jNy_ZaxBvfYAeNrPN4-121" target="z_jNy_ZaxBvfYAeNrPN4-52">
          <mxGeometry relative="1" as="geometry">
            <mxPoint x="286" y="377" as="sourcePoint" />
          </mxGeometry>
        </mxCell>
        <mxCell id="z_jNy_ZaxBvfYAeNrPN4-61" value="edit profile" style="text;html=1;align=center;verticalAlign=middle;resizable=0;points=[];autosize=1;strokeColor=none;fillColor=none;fontSize=14;fontFamily=Helvetica;fontColor=default;rotation=10;" vertex="1" parent="z_jNy_ZaxBvfYAeNrPN4-121">
          <mxGeometry x="174" y="128" width="83" height="29" as="geometry" />
        </mxCell>
        <mxCell id="z_jNy_ZaxBvfYAeNrPN4-63" value="" style="edgeStyle=segmentEdgeStyle;endArrow=classic;html=1;rounded=0;labelBackgroundColor=default;strokeColor=default;fontFamily=Helvetica;fontSize=14;fontColor=default;shape=connector;curved=1;" edge="1" parent="z_jNy_ZaxBvfYAeNrPN4-121" target="z_jNy_ZaxBvfYAeNrPN4-52">
          <mxGeometry width="50" height="50" relative="1" as="geometry">
            <mxPoint x="228" y="45" as="sourcePoint" />
            <mxPoint x="348" y="344" as="targetPoint" />
          </mxGeometry>
        </mxCell>
        <mxCell id="z_jNy_ZaxBvfYAeNrPN4-65" value="view result" style="text;html=1;align=center;verticalAlign=middle;resizable=0;points=[];autosize=1;strokeColor=none;fillColor=none;fontSize=14;fontFamily=Helvetica;fontColor=default;rotation=45;" vertex="1" parent="z_jNy_ZaxBvfYAeNrPN4-121">
          <mxGeometry x="61" y="243" width="84" height="29" as="geometry" />
        </mxCell>
        <mxCell id="z_jNy_ZaxBvfYAeNrPN4-54" style="edgeStyle=none;shape=connector;curved=1;rounded=0;orthogonalLoop=1;jettySize=auto;html=1;labelBackgroundColor=default;strokeColor=default;fontFamily=Helvetica;fontSize=14;fontColor=default;endArrow=classic;entryX=1;entryY=0.5;entryDx=0;entryDy=0;" edge="1" parent="z_jNy_ZaxBvfYAeNrPN4-121" target="z_jNy_ZaxBvfYAeNrPN4-103">
          <mxGeometry relative="1" as="geometry">
            <mxPoint x="1186" y="140" as="sourcePoint" />
            <mxPoint x="1038.266459884333" y="330.0592422770071" as="targetPoint" />
          </mxGeometry>
        </mxCell>
        <mxCell id="z_jNy_ZaxBvfYAeNrPN4-55" style="edgeStyle=none;shape=connector;curved=1;rounded=0;orthogonalLoop=1;jettySize=auto;html=1;exitX=0.5;exitY=1;exitDx=0;exitDy=0;entryX=0.988;entryY=0.322;entryDx=0;entryDy=0;entryPerimeter=0;labelBackgroundColor=default;strokeColor=default;fontFamily=Helvetica;fontSize=14;fontColor=default;endArrow=classic;" edge="1" parent="z_jNy_ZaxBvfYAeNrPN4-121" source="z_jNy_ZaxBvfYAeNrPN4-57">
          <mxGeometry relative="1" as="geometry">
            <mxPoint x="1063.5099999999998" y="364.0899999999999" as="targetPoint" />
          </mxGeometry>
        </mxCell>
        <mxCell id="z_jNy_ZaxBvfYAeNrPN4-56" style="edgeStyle=none;shape=connector;curved=1;rounded=0;orthogonalLoop=1;jettySize=auto;html=1;exitX=0;exitY=0.5;exitDx=0;exitDy=0;labelBackgroundColor=default;strokeColor=default;fontFamily=Helvetica;fontSize=14;fontColor=default;endArrow=classic;" edge="1" parent="z_jNy_ZaxBvfYAeNrPN4-121" source="z_jNy_ZaxBvfYAeNrPN4-57">
          <mxGeometry relative="1" as="geometry">
            <mxPoint x="898" y="267" as="targetPoint" />
          </mxGeometry>
        </mxCell>
        <mxCell id="z_jNy_ZaxBvfYAeNrPN4-57" value="Recruiter" style="rounded=0;whiteSpace=wrap;html=1;fontSize=24;" vertex="1" parent="z_jNy_ZaxBvfYAeNrPN4-121">
          <mxGeometry x="1186.15" y="138.25" width="120" height="60" as="geometry" />
        </mxCell>
        <mxCell id="z_jNy_ZaxBvfYAeNrPN4-66" value="create a&amp;nbsp; drive" style="text;html=1;align=center;verticalAlign=middle;resizable=0;points=[];autosize=1;strokeColor=none;fillColor=none;fontSize=14;fontFamily=Helvetica;fontColor=default;rotation=30;" vertex="1" parent="z_jNy_ZaxBvfYAeNrPN4-121">
          <mxGeometry x="1013.25" y="44" width="107" height="29" as="geometry" />
        </mxCell>
        <mxCell id="z_jNy_ZaxBvfYAeNrPN4-68" value="" style="edgeStyle=segmentEdgeStyle;endArrow=classic;html=1;rounded=0;labelBackgroundColor=default;strokeColor=default;fontFamily=Helvetica;fontSize=14;fontColor=default;shape=connector;curved=1;entryX=0;entryY=0.25;entryDx=0;entryDy=0;exitX=1;exitY=0.5;exitDx=0;exitDy=0;" edge="1" parent="z_jNy_ZaxBvfYAeNrPN4-121" source="z_jNy_ZaxBvfYAeNrPN4-97" target="z_jNy_ZaxBvfYAeNrPN4-57">
          <mxGeometry width="50" height="50" relative="1" as="geometry">
            <mxPoint x="798" y="162" as="sourcePoint" />
            <mxPoint x="952.15" y="353.25" as="targetPoint" />
            <Array as="points">
              <mxPoint x="902" y="153" />
            </Array>
          </mxGeometry>
        </mxCell>
        <mxCell id="z_jNy_ZaxBvfYAeNrPN4-70" value="select eligible students" style="text;html=1;align=center;verticalAlign=middle;resizable=0;points=[];autosize=1;strokeColor=none;fillColor=none;fontSize=14;fontFamily=Helvetica;fontColor=default;rotation=-15;" vertex="1" parent="z_jNy_ZaxBvfYAeNrPN4-121">
          <mxGeometry x="918" y="198.25" width="159" height="29" as="geometry" />
        </mxCell>
        <mxCell id="z_jNy_ZaxBvfYAeNrPN4-85" value="edit or update profile" style="ellipse;whiteSpace=wrap;html=1;aspect=fixed;fontFamily=Helvetica;fontSize=14;fontColor=default;" vertex="1" parent="z_jNy_ZaxBvfYAeNrPN4-121">
          <mxGeometry x="292" y="131" width="80" height="80" as="geometry" />
        </mxCell>
        <mxCell id="z_jNy_ZaxBvfYAeNrPN4-86" value="student data" style="shape=partialRectangle;whiteSpace=wrap;html=1;left=0;right=0;fillColor=none;fontFamily=Helvetica;fontSize=14;fontColor=default;" vertex="1" parent="z_jNy_ZaxBvfYAeNrPN4-121">
          <mxGeometry x="410" y="29" width="120" height="42" as="geometry" />
        </mxCell>
        <mxCell id="z_jNy_ZaxBvfYAeNrPN4-87" style="edgeStyle=none;shape=connector;curved=1;rounded=0;orthogonalLoop=1;jettySize=auto;html=1;exitX=1;exitY=0;exitDx=0;exitDy=0;entryX=0.153;entryY=1.063;entryDx=0;entryDy=0;entryPerimeter=0;labelBackgroundColor=default;strokeColor=default;fontFamily=Helvetica;fontSize=14;fontColor=default;endArrow=classic;" edge="1" parent="z_jNy_ZaxBvfYAeNrPN4-121" source="z_jNy_ZaxBvfYAeNrPN4-85" target="z_jNy_ZaxBvfYAeNrPN4-86">
          <mxGeometry relative="1" as="geometry" />
        </mxCell>
        <mxCell id="z_jNy_ZaxBvfYAeNrPN4-88" value="view posted drive" style="text;html=1;align=center;verticalAlign=middle;resizable=0;points=[];autosize=1;strokeColor=none;fillColor=none;fontSize=14;fontFamily=Helvetica;fontColor=default;rotation=25;" vertex="1" parent="z_jNy_ZaxBvfYAeNrPN4-121">
          <mxGeometry x="121" y="193" width="126" height="29" as="geometry" />
        </mxCell>
        <mxCell id="z_jNy_ZaxBvfYAeNrPN4-89" value="apply for drive" style="ellipse;whiteSpace=wrap;html=1;aspect=fixed;fontFamily=Helvetica;fontSize=14;fontColor=default;" vertex="1" parent="z_jNy_ZaxBvfYAeNrPN4-121">
          <mxGeometry x="318" y="222.25" width="80" height="80" as="geometry" />
        </mxCell>
        <mxCell id="z_jNy_ZaxBvfYAeNrPN4-51" style="edgeStyle=none;shape=connector;curved=1;rounded=0;orthogonalLoop=1;jettySize=auto;html=1;exitX=0.75;exitY=1;exitDx=0;exitDy=0;labelBackgroundColor=default;strokeColor=default;fontFamily=Helvetica;fontSize=14;fontColor=default;endArrow=classic;entryX=0;entryY=0.5;entryDx=0;entryDy=0;" edge="1" parent="z_jNy_ZaxBvfYAeNrPN4-121" source="z_jNy_ZaxBvfYAeNrPN4-52" target="z_jNy_ZaxBvfYAeNrPN4-89">
          <mxGeometry relative="1" as="geometry">
            <mxPoint x="314" y="273" as="targetPoint" />
          </mxGeometry>
        </mxCell>
        <mxCell id="z_jNy_ZaxBvfYAeNrPN4-90" value="get resume" style="ellipse;whiteSpace=wrap;html=1;aspect=fixed;fontFamily=Helvetica;fontSize=14;fontColor=default;" vertex="1" parent="z_jNy_ZaxBvfYAeNrPN4-121">
          <mxGeometry x="226" y="8" width="80" height="80" as="geometry" />
        </mxCell>
        <mxCell id="z_jNy_ZaxBvfYAeNrPN4-91" style="edgeStyle=none;shape=connector;curved=1;rounded=0;orthogonalLoop=1;jettySize=auto;html=1;exitX=0.25;exitY=0;exitDx=0;exitDy=0;entryX=0.977;entryY=0.373;entryDx=0;entryDy=0;entryPerimeter=0;labelBackgroundColor=default;strokeColor=default;fontFamily=Helvetica;fontSize=14;fontColor=default;endArrow=classic;" edge="1" parent="z_jNy_ZaxBvfYAeNrPN4-121" source="z_jNy_ZaxBvfYAeNrPN4-86" target="z_jNy_ZaxBvfYAeNrPN4-90">
          <mxGeometry relative="1" as="geometry" />
        </mxCell>
        <mxCell id="z_jNy_ZaxBvfYAeNrPN4-93" value="fetch data" style="text;html=1;align=center;verticalAlign=middle;resizable=0;points=[];autosize=1;strokeColor=none;fillColor=none;fontSize=14;fontFamily=Helvetica;fontColor=default;" vertex="1" parent="z_jNy_ZaxBvfYAeNrPN4-121">
          <mxGeometry x="318" width="80" height="29" as="geometry" />
        </mxCell>
        <mxCell id="z_jNy_ZaxBvfYAeNrPN4-94" value="view or download" style="text;html=1;align=center;verticalAlign=middle;resizable=0;points=[];autosize=1;strokeColor=none;fillColor=none;fontSize=14;fontFamily=Helvetica;fontColor=default;rotation=-20;" vertex="1" parent="z_jNy_ZaxBvfYAeNrPN4-121">
          <mxGeometry x="46" y="25" width="126" height="29" as="geometry" />
        </mxCell>
        <mxCell id="z_jNy_ZaxBvfYAeNrPN4-95" value="drive data" style="shape=partialRectangle;whiteSpace=wrap;html=1;left=0;right=0;fillColor=none;fontFamily=Helvetica;fontSize=14;fontColor=default;" vertex="1" parent="z_jNy_ZaxBvfYAeNrPN4-121">
          <mxGeometry x="522" y="166" width="120" height="43" as="geometry" />
        </mxCell>
        <mxCell id="z_jNy_ZaxBvfYAeNrPN4-96" style="edgeStyle=none;shape=connector;curved=1;rounded=0;orthogonalLoop=1;jettySize=auto;html=1;exitX=1;exitY=0;exitDx=0;exitDy=0;entryX=0;entryY=0.5;entryDx=0;entryDy=0;labelBackgroundColor=default;strokeColor=default;fontFamily=Helvetica;fontSize=14;fontColor=default;endArrow=classic;" edge="1" parent="z_jNy_ZaxBvfYAeNrPN4-121" source="z_jNy_ZaxBvfYAeNrPN4-89" target="z_jNy_ZaxBvfYAeNrPN4-95">
          <mxGeometry relative="1" as="geometry" />
        </mxCell>
        <mxCell id="z_jNy_ZaxBvfYAeNrPN4-97" value="get applied student list" style="ellipse;whiteSpace=wrap;html=1;aspect=fixed;fontFamily=Helvetica;fontSize=14;fontColor=default;" vertex="1" parent="z_jNy_ZaxBvfYAeNrPN4-121">
          <mxGeometry x="822" y="123" width="80" height="80" as="geometry" />
        </mxCell>
        <mxCell id="z_jNy_ZaxBvfYAeNrPN4-102" style="edgeStyle=none;shape=connector;curved=1;rounded=0;orthogonalLoop=1;jettySize=auto;html=1;exitX=1;exitY=1;exitDx=0;exitDy=0;entryX=0;entryY=0;entryDx=0;entryDy=0;labelBackgroundColor=default;strokeColor=default;fontFamily=Helvetica;fontSize=14;fontColor=default;endArrow=classic;" edge="1" parent="z_jNy_ZaxBvfYAeNrPN4-121" source="z_jNy_ZaxBvfYAeNrPN4-86" target="z_jNy_ZaxBvfYAeNrPN4-97">
          <mxGeometry relative="1" as="geometry" />
        </mxCell>
        <mxCell id="z_jNy_ZaxBvfYAeNrPN4-99" style="edgeStyle=none;shape=connector;curved=1;rounded=0;orthogonalLoop=1;jettySize=auto;html=1;exitX=1;exitY=0.75;exitDx=0;exitDy=0;labelBackgroundColor=default;strokeColor=default;fontFamily=Helvetica;fontSize=14;fontColor=default;endArrow=classic;" edge="1" parent="z_jNy_ZaxBvfYAeNrPN4-121" source="z_jNy_ZaxBvfYAeNrPN4-95" target="z_jNy_ZaxBvfYAeNrPN4-97">
          <mxGeometry relative="1" as="geometry" />
        </mxCell>
        <mxCell id="z_jNy_ZaxBvfYAeNrPN4-100" value="student list" style="text;html=1;align=center;verticalAlign=middle;resizable=0;points=[];autosize=1;strokeColor=none;fillColor=none;fontSize=14;fontFamily=Helvetica;fontColor=default;rotation=-10;" vertex="1" parent="z_jNy_ZaxBvfYAeNrPN4-121">
          <mxGeometry x="682" y="150" width="85" height="29" as="geometry" />
        </mxCell>
        <mxCell id="z_jNy_ZaxBvfYAeNrPN4-101" value="view list" style="text;html=1;align=center;verticalAlign=middle;resizable=0;points=[];autosize=1;strokeColor=none;fillColor=none;fontSize=14;fontFamily=Helvetica;fontColor=default;" vertex="1" parent="z_jNy_ZaxBvfYAeNrPN4-121">
          <mxGeometry x="980" y="115" width="67" height="29" as="geometry" />
        </mxCell>
        <mxCell id="z_jNy_ZaxBvfYAeNrPN4-117" style="edgeStyle=none;shape=connector;curved=1;rounded=0;orthogonalLoop=1;jettySize=auto;html=1;exitX=0;exitY=0.5;exitDx=0;exitDy=0;entryX=0.5;entryY=0;entryDx=0;entryDy=0;labelBackgroundColor=default;strokeColor=default;fontFamily=Helvetica;fontSize=14;fontColor=default;endArrow=classic;" edge="1" parent="z_jNy_ZaxBvfYAeNrPN4-121" source="z_jNy_ZaxBvfYAeNrPN4-103" target="z_jNy_ZaxBvfYAeNrPN4-95">
          <mxGeometry relative="1" as="geometry" />
        </mxCell>
        <mxCell id="z_jNy_ZaxBvfYAeNrPN4-103" value="new drive creation" style="ellipse;whiteSpace=wrap;html=1;aspect=fixed;fontFamily=Helvetica;fontSize=14;fontColor=default;" vertex="1" parent="z_jNy_ZaxBvfYAeNrPN4-121">
          <mxGeometry x="863" y="18.5" width="80" height="80" as="geometry" />
        </mxCell>
        <mxCell id="z_jNy_ZaxBvfYAeNrPN4-105" style="edgeStyle=none;shape=connector;curved=1;rounded=0;orthogonalLoop=1;jettySize=auto;html=1;exitX=0;exitY=0.5;exitDx=0;exitDy=0;entryX=0.75;entryY=1;entryDx=0;entryDy=0;labelBackgroundColor=default;strokeColor=default;fontFamily=Helvetica;fontSize=14;fontColor=default;endArrow=classic;" edge="1" parent="z_jNy_ZaxBvfYAeNrPN4-121" source="z_jNy_ZaxBvfYAeNrPN4-104" target="z_jNy_ZaxBvfYAeNrPN4-95">
          <mxGeometry relative="1" as="geometry" />
        </mxCell>
        <mxCell id="z_jNy_ZaxBvfYAeNrPN4-104" value="post result" style="ellipse;whiteSpace=wrap;html=1;aspect=fixed;fontFamily=Helvetica;fontSize=14;fontColor=default;" vertex="1" parent="z_jNy_ZaxBvfYAeNrPN4-121">
          <mxGeometry x="816" y="235" width="80" height="80" as="geometry" />
        </mxCell>
        <mxCell id="z_jNy_ZaxBvfYAeNrPN4-106" value="get result" style="ellipse;whiteSpace=wrap;html=1;aspect=fixed;fontFamily=Helvetica;fontSize=14;fontColor=default;" vertex="1" parent="z_jNy_ZaxBvfYAeNrPN4-121">
          <mxGeometry x="287" y="353" width="80" height="80" as="geometry" />
        </mxCell>
        <mxCell id="z_jNy_ZaxBvfYAeNrPN4-107" style="edgeStyle=none;shape=connector;curved=1;rounded=0;orthogonalLoop=1;jettySize=auto;html=1;exitX=0.25;exitY=1;exitDx=0;exitDy=0;labelBackgroundColor=default;strokeColor=default;fontFamily=Helvetica;fontSize=14;fontColor=default;endArrow=classic;" edge="1" parent="z_jNy_ZaxBvfYAeNrPN4-121" source="z_jNy_ZaxBvfYAeNrPN4-95" target="z_jNy_ZaxBvfYAeNrPN4-106">
          <mxGeometry relative="1" as="geometry" />
        </mxCell>
        <mxCell id="z_jNy_ZaxBvfYAeNrPN4-108" value="selected students list&lt;br&gt;" style="text;html=1;align=center;verticalAlign=middle;resizable=0;points=[];autosize=1;strokeColor=none;fillColor=none;fontSize=14;fontFamily=Helvetica;fontColor=default;rotation=-40;" vertex="1" parent="z_jNy_ZaxBvfYAeNrPN4-121">
          <mxGeometry x="379" y="299" width="148" height="29" as="geometry" />
        </mxCell>
        <mxCell id="z_jNy_ZaxBvfYAeNrPN4-59" style="edgeStyle=none;shape=connector;curved=1;rounded=0;orthogonalLoop=1;jettySize=auto;html=1;exitX=0.75;exitY=0;exitDx=0;exitDy=0;labelBackgroundColor=default;strokeColor=default;fontFamily=Helvetica;fontSize=14;fontColor=default;endArrow=classic;" edge="1" parent="z_jNy_ZaxBvfYAeNrPN4-121" source="z_jNy_ZaxBvfYAeNrPN4-60">
          <mxGeometry relative="1" as="geometry">
            <mxPoint x="897" y="487" as="targetPoint" />
          </mxGeometry>
        </mxCell>
        <mxCell id="z_jNy_ZaxBvfYAeNrPN4-60" value="Coordinator" style="rounded=0;whiteSpace=wrap;html=1;fontSize=24;" vertex="1" parent="z_jNy_ZaxBvfYAeNrPN4-121">
          <mxGeometry x="927.25" y="745.6500000000001" width="148" height="60" as="geometry" />
        </mxCell>
        <mxCell id="z_jNy_ZaxBvfYAeNrPN4-71" value="&lt;br&gt;&amp;nbsp;notice" style="text;html=1;align=center;verticalAlign=middle;resizable=0;points=[];autosize=1;strokeColor=none;fillColor=none;fontSize=14;fontFamily=Helvetica;fontColor=default;rotation=40;" vertex="1" parent="z_jNy_ZaxBvfYAeNrPN4-121">
          <mxGeometry x="791" y="639" width="59" height="46" as="geometry" />
        </mxCell>
        <mxCell id="z_jNy_ZaxBvfYAeNrPN4-73" style="edgeStyle=none;shape=connector;curved=1;rounded=0;orthogonalLoop=1;jettySize=auto;html=1;exitX=0.574;exitY=1.031;exitDx=0;exitDy=0;entryX=0.25;entryY=0;entryDx=0;entryDy=0;labelBackgroundColor=default;strokeColor=default;fontFamily=Helvetica;fontSize=14;fontColor=default;endArrow=classic;exitPerimeter=0;" edge="1" parent="z_jNy_ZaxBvfYAeNrPN4-121" source="z_jNy_ZaxBvfYAeNrPN4-95" target="z_jNy_ZaxBvfYAeNrPN4-60">
          <mxGeometry relative="1" as="geometry">
            <mxPoint x="923.0317459305204" y="528.4317459305205" as="sourcePoint" />
          </mxGeometry>
        </mxCell>
        <mxCell id="z_jNy_ZaxBvfYAeNrPN4-74" value="" style="edgeStyle=segmentEdgeStyle;endArrow=classic;html=1;rounded=0;labelBackgroundColor=default;strokeColor=default;fontFamily=Helvetica;fontSize=14;fontColor=default;shape=connector;curved=1;entryX=0;entryY=0.25;entryDx=0;entryDy=0;exitX=0.5;exitY=1;exitDx=0;exitDy=0;" edge="1" parent="z_jNy_ZaxBvfYAeNrPN4-121" source="z_jNy_ZaxBvfYAeNrPN4-95" target="z_jNy_ZaxBvfYAeNrPN4-60">
          <mxGeometry width="50" height="50" relative="1" as="geometry">
            <mxPoint x="853.2500000000002" y="560.35870521522" as="sourcePoint" />
            <mxPoint x="867.25" y="778.6500000000001" as="targetPoint" />
            <Array as="points">
              <mxPoint x="574" y="209" />
              <mxPoint x="574" y="755" />
              <mxPoint x="861" y="755" />
              <mxPoint x="861" y="761" />
            </Array>
          </mxGeometry>
        </mxCell>
        <mxCell id="z_jNy_ZaxBvfYAeNrPN4-75" value="" style="edgeStyle=segmentEdgeStyle;endArrow=classic;html=1;rounded=0;labelBackgroundColor=default;strokeColor=default;fontFamily=Helvetica;fontSize=14;fontColor=default;shape=connector;curved=1;exitX=1;exitY=0;exitDx=0;exitDy=0;entryX=0.5;entryY=1;entryDx=0;entryDy=0;" edge="1" parent="z_jNy_ZaxBvfYAeNrPN4-121" source="z_jNy_ZaxBvfYAeNrPN4-60" target="z_jNy_ZaxBvfYAeNrPN4-119">
          <mxGeometry width="50" height="50" relative="1" as="geometry">
            <mxPoint x="1040.25" y="610.6500000000001" as="sourcePoint" />
            <mxPoint x="1065" y="425" as="targetPoint" />
            <Array as="points">
              <mxPoint x="1060" y="746" />
            </Array>
          </mxGeometry>
        </mxCell>
        <mxCell id="z_jNy_ZaxBvfYAeNrPN4-112" value="&lt;span style=&quot;&quot;&gt;view drive and&lt;/span&gt;&lt;br style=&quot;&quot;&gt;&lt;span style=&quot;&quot;&gt;applied student details&lt;/span&gt;" style="ellipse;whiteSpace=wrap;html=1;aspect=fixed;fontFamily=Helvetica;fontSize=14;fontColor=default;" vertex="1" parent="z_jNy_ZaxBvfYAeNrPN4-121">
          <mxGeometry x="538" y="452" width="103" height="103" as="geometry" />
        </mxCell>
        <mxCell id="z_jNy_ZaxBvfYAeNrPN4-113" value="view students and approve&amp;nbsp;" style="text;html=1;align=center;verticalAlign=middle;resizable=0;points=[];autosize=1;strokeColor=none;fillColor=none;fontSize=14;fontFamily=Helvetica;fontColor=default;rotation=45;" vertex="1" parent="z_jNy_ZaxBvfYAeNrPN4-121">
          <mxGeometry x="513" y="706" width="188" height="29" as="geometry" />
        </mxCell>
        <mxCell id="z_jNy_ZaxBvfYAeNrPN4-114" value="create notice" style="ellipse;whiteSpace=wrap;html=1;aspect=fixed;fontFamily=Helvetica;fontSize=14;fontColor=default;" vertex="1" parent="z_jNy_ZaxBvfYAeNrPN4-121">
          <mxGeometry x="698" y="535.6500000000001" width="80" height="80" as="geometry" />
        </mxCell>
        <mxCell id="z_jNy_ZaxBvfYAeNrPN4-58" style="edgeStyle=none;shape=connector;curved=1;rounded=0;orthogonalLoop=1;jettySize=auto;html=1;exitX=0;exitY=0;exitDx=0;exitDy=0;labelBackgroundColor=default;strokeColor=default;fontFamily=Helvetica;fontSize=14;fontColor=default;endArrow=classic;entryX=1;entryY=1;entryDx=0;entryDy=0;" edge="1" parent="z_jNy_ZaxBvfYAeNrPN4-121" source="z_jNy_ZaxBvfYAeNrPN4-60" target="z_jNy_ZaxBvfYAeNrPN4-114">
          <mxGeometry relative="1" as="geometry">
            <mxPoint x="799" y="588" as="targetPoint" />
          </mxGeometry>
        </mxCell>
        <mxCell id="z_jNy_ZaxBvfYAeNrPN4-116" style="edgeStyle=none;shape=connector;curved=1;rounded=0;orthogonalLoop=1;jettySize=auto;html=1;exitX=0.5;exitY=0;exitDx=0;exitDy=0;labelBackgroundColor=default;strokeColor=default;fontFamily=Helvetica;fontSize=14;fontColor=default;endArrow=classic;" edge="1" parent="z_jNy_ZaxBvfYAeNrPN4-121" source="z_jNy_ZaxBvfYAeNrPN4-115" target="z_jNy_ZaxBvfYAeNrPN4-104">
          <mxGeometry relative="1" as="geometry" />
        </mxCell>
        <mxCell id="z_jNy_ZaxBvfYAeNrPN4-115" value="&lt;span style=&quot;color: rgb(0, 0, 0); font-family: Helvetica; font-size: 14px; font-style: normal; font-variant-ligatures: normal; font-variant-caps: normal; font-weight: 400; letter-spacing: normal; orphans: 2; text-align: center; text-indent: 0px; text-transform: none; widows: 2; word-spacing: 0px; -webkit-text-stroke-width: 0px; background-color: rgb(248, 249, 250); text-decoration-thickness: initial; text-decoration-style: initial; text-decoration-color: initial; float: none; display: inline !important;&quot;&gt;send student list to recruiter&lt;/span&gt;" style="ellipse;whiteSpace=wrap;html=1;aspect=fixed;fontFamily=Helvetica;fontSize=14;fontColor=default;" vertex="1" parent="z_jNy_ZaxBvfYAeNrPN4-121">
          <mxGeometry x="843" y="412" width="80" height="80" as="geometry" />
        </mxCell>
        <mxCell id="z_jNy_ZaxBvfYAeNrPN4-118" value="add detail&lt;br&gt;" style="text;html=1;align=center;verticalAlign=middle;resizable=0;points=[];autosize=1;strokeColor=none;fillColor=none;fontSize=14;fontFamily=Helvetica;fontColor=default;rotation=-24;" vertex="1" parent="z_jNy_ZaxBvfYAeNrPN4-121">
          <mxGeometry x="712" y="66" width="79" height="29" as="geometry" />
        </mxCell>
        <mxCell id="z_jNy_ZaxBvfYAeNrPN4-120" value="&lt;span style=&quot;&quot;&gt;view student detail&lt;/span&gt;" style="ellipse;whiteSpace=wrap;html=1;aspect=fixed;fontFamily=Helvetica;fontSize=14;fontColor=default;" vertex="1" parent="z_jNy_ZaxBvfYAeNrPN4-121">
          <mxGeometry x="724" y="412" width="80" height="80" as="geometry" />
        </mxCell>
        <mxCell id="z_jNy_ZaxBvfYAeNrPN4-179" value="feedback" style="text;html=1;align=center;verticalAlign=middle;resizable=0;points=[];autosize=1;strokeColor=none;fillColor=none;fontSize=14;fontFamily=Helvetica;fontColor=default;rotation=-45;" vertex="1" parent="z_jNy_ZaxBvfYAeNrPN4-121">
          <mxGeometry x="1186.15" y="233" width="75" height="29" as="geometry" />
        </mxCell>
        <mxCell id="z_jNy_ZaxBvfYAeNrPN4-189" value="" style="group" vertex="1" connectable="0" parent="z_jNy_ZaxBvfYAeNrPN4-121">
          <mxGeometry x="1000" y="243" width="186.1500000000001" height="339" as="geometry" />
        </mxCell>
        <mxCell id="z_jNy_ZaxBvfYAeNrPN4-119" value="feedbacks or queries data" style="shape=partialRectangle;whiteSpace=wrap;html=1;left=0;right=0;fillColor=none;fontFamily=Helvetica;fontSize=14;fontColor=default;" vertex="1" parent="z_jNy_ZaxBvfYAeNrPN4-189">
          <mxGeometry y="135" width="120" height="38" as="geometry" />
        </mxCell>
        <mxCell id="z_jNy_ZaxBvfYAeNrPN4-177" value="&lt;span style=&quot;&quot;&gt;give feedback and query&lt;/span&gt;" style="ellipse;whiteSpace=wrap;html=1;aspect=fixed;fontFamily=Helvetica;fontSize=14;fontColor=default;" vertex="1" parent="z_jNy_ZaxBvfYAeNrPN4-189">
          <mxGeometry x="106.15000000000009" width="80" height="80" as="geometry" />
        </mxCell>
        <mxCell id="z_jNy_ZaxBvfYAeNrPN4-180" value="&lt;span style=&quot;color: rgb(0, 0, 0); font-family: Helvetica; font-size: 14px; font-style: normal; font-variant-ligatures: normal; font-variant-caps: normal; font-weight: 400; letter-spacing: normal; orphans: 2; text-align: center; text-indent: 0px; text-transform: none; widows: 2; word-spacing: 0px; -webkit-text-stroke-width: 0px; background-color: rgb(248, 249, 250); text-decoration-thickness: initial; text-decoration-style: initial; text-decoration-color: initial; float: none; display: inline !important;&quot;&gt;give red flag&lt;/span&gt;" style="ellipse;whiteSpace=wrap;html=1;aspect=fixed;fontFamily=Helvetica;fontSize=14;fontColor=default;" vertex="1" parent="z_jNy_ZaxBvfYAeNrPN4-189">
          <mxGeometry x="20" y="259" width="80" height="80" as="geometry" />
        </mxCell>
        <mxCell id="z_jNy_ZaxBvfYAeNrPN4-181" value="add flag" style="text;html=1;align=center;verticalAlign=middle;resizable=0;points=[];autosize=1;strokeColor=none;fillColor=none;fontSize=14;fontFamily=Helvetica;fontColor=default;" vertex="1" parent="1">
          <mxGeometry x="808" y="2225" width="68" height="29" as="geometry" />
        </mxCell>
        <mxCell id="z_jNy_ZaxBvfYAeNrPN4-210" value="" style="group" vertex="1" connectable="0" parent="1">
          <mxGeometry x="-235" y="1034" width="1306.15" height="805.6500000000001" as="geometry" />
        </mxCell>
        <mxCell id="z_jNy_ZaxBvfYAeNrPN4-122" value="" style="group" vertex="1" connectable="0" parent="z_jNy_ZaxBvfYAeNrPN4-210">
          <mxGeometry width="1306.15" height="805.6500000000001" as="geometry" />
        </mxCell>
        <mxCell id="z_jNy_ZaxBvfYAeNrPN4-123" style="edgeStyle=none;shape=connector;curved=1;rounded=0;orthogonalLoop=1;jettySize=auto;html=1;exitX=1;exitY=0.5;exitDx=0;exitDy=0;labelBackgroundColor=default;strokeColor=default;fontFamily=Helvetica;fontSize=24;fontColor=default;endArrow=classic;entryX=0.25;entryY=0.927;entryDx=0;entryDy=0;entryPerimeter=0;" edge="1" parent="z_jNy_ZaxBvfYAeNrPN4-122" source="z_jNy_ZaxBvfYAeNrPN4-124" target="z_jNy_ZaxBvfYAeNrPN4-143">
          <mxGeometry relative="1" as="geometry">
            <mxPoint x="293" y="170" as="targetPoint" />
            <Array as="points">
              <mxPoint x="184" y="114" />
            </Array>
          </mxGeometry>
        </mxCell>
        <mxCell id="z_jNy_ZaxBvfYAeNrPN4-124" value="Student" style="rounded=0;whiteSpace=wrap;html=1;fontSize=24;" vertex="1" parent="z_jNy_ZaxBvfYAeNrPN4-122">
          <mxGeometry y="119" width="120" height="60" as="geometry" />
        </mxCell>
        <mxCell id="z_jNy_ZaxBvfYAeNrPN4-125" style="edgeStyle=none;shape=connector;curved=1;rounded=0;orthogonalLoop=1;jettySize=auto;html=1;entryX=0.5;entryY=1;entryDx=0;entryDy=0;labelBackgroundColor=default;strokeColor=default;fontFamily=Helvetica;fontSize=14;fontColor=default;endArrow=classic;exitX=0;exitY=1;exitDx=0;exitDy=0;" edge="1" parent="z_jNy_ZaxBvfYAeNrPN4-122" target="z_jNy_ZaxBvfYAeNrPN4-124" source="z_jNy_ZaxBvfYAeNrPN4-141">
          <mxGeometry relative="1" as="geometry">
            <mxPoint x="286" y="377" as="sourcePoint" />
          </mxGeometry>
        </mxCell>
        <mxCell id="z_jNy_ZaxBvfYAeNrPN4-126" value="edit profile" style="text;html=1;align=center;verticalAlign=middle;resizable=0;points=[];autosize=1;strokeColor=none;fillColor=none;fontSize=14;fontFamily=Helvetica;fontColor=default;rotation=10;" vertex="1" parent="z_jNy_ZaxBvfYAeNrPN4-122">
          <mxGeometry x="174" y="128" width="83" height="29" as="geometry" />
        </mxCell>
        <mxCell id="z_jNy_ZaxBvfYAeNrPN4-127" value="" style="edgeStyle=segmentEdgeStyle;endArrow=classic;html=1;rounded=0;labelBackgroundColor=default;strokeColor=default;fontFamily=Helvetica;fontSize=14;fontColor=default;shape=connector;curved=1;" edge="1" parent="z_jNy_ZaxBvfYAeNrPN4-122" target="z_jNy_ZaxBvfYAeNrPN4-124">
          <mxGeometry width="50" height="50" relative="1" as="geometry">
            <mxPoint x="228" y="45" as="sourcePoint" />
            <mxPoint x="348" y="344" as="targetPoint" />
          </mxGeometry>
        </mxCell>
        <mxCell id="z_jNy_ZaxBvfYAeNrPN4-128" value="view result" style="text;html=1;align=center;verticalAlign=middle;resizable=0;points=[];autosize=1;strokeColor=none;fillColor=none;fontSize=14;fontFamily=Helvetica;fontColor=default;rotation=25;" vertex="1" parent="z_jNy_ZaxBvfYAeNrPN4-122">
          <mxGeometry x="128" y="233" width="84" height="29" as="geometry" />
        </mxCell>
        <mxCell id="z_jNy_ZaxBvfYAeNrPN4-129" style="edgeStyle=none;shape=connector;curved=1;rounded=0;orthogonalLoop=1;jettySize=auto;html=1;labelBackgroundColor=default;strokeColor=default;fontFamily=Helvetica;fontSize=14;fontColor=default;endArrow=classic;" edge="1" parent="z_jNy_ZaxBvfYAeNrPN4-122">
          <mxGeometry relative="1" as="geometry">
            <mxPoint x="1186" y="140" as="sourcePoint" />
            <mxPoint x="887" y="130" as="targetPoint" />
          </mxGeometry>
        </mxCell>
        <mxCell id="z_jNy_ZaxBvfYAeNrPN4-130" style="edgeStyle=none;shape=connector;curved=1;rounded=0;orthogonalLoop=1;jettySize=auto;html=1;exitX=0.5;exitY=1;exitDx=0;exitDy=0;labelBackgroundColor=default;strokeColor=default;fontFamily=Helvetica;fontSize=14;fontColor=default;endArrow=classic;" edge="1" parent="z_jNy_ZaxBvfYAeNrPN4-122" source="z_jNy_ZaxBvfYAeNrPN4-132" target="z_jNy_ZaxBvfYAeNrPN4-192">
          <mxGeometry relative="1" as="geometry">
            <mxPoint x="1146.9738141162657" y="289.1783556979967" as="targetPoint" />
          </mxGeometry>
        </mxCell>
        <mxCell id="z_jNy_ZaxBvfYAeNrPN4-131" style="edgeStyle=none;shape=connector;curved=1;rounded=0;orthogonalLoop=1;jettySize=auto;html=1;exitX=0;exitY=0.5;exitDx=0;exitDy=0;labelBackgroundColor=default;strokeColor=default;fontFamily=Helvetica;fontSize=14;fontColor=default;endArrow=classic;entryX=1;entryY=1;entryDx=0;entryDy=0;" edge="1" parent="z_jNy_ZaxBvfYAeNrPN4-122" source="z_jNy_ZaxBvfYAeNrPN4-132" target="z_jNy_ZaxBvfYAeNrPN4-149">
          <mxGeometry relative="1" as="geometry">
            <mxPoint x="898" y="267" as="targetPoint" />
          </mxGeometry>
        </mxCell>
        <mxCell id="z_jNy_ZaxBvfYAeNrPN4-132" value="Recruiter" style="rounded=0;whiteSpace=wrap;html=1;fontSize=24;" vertex="1" parent="z_jNy_ZaxBvfYAeNrPN4-122">
          <mxGeometry x="1186.15" y="138.25" width="120" height="60" as="geometry" />
        </mxCell>
        <mxCell id="z_jNy_ZaxBvfYAeNrPN4-133" value="create a&amp;nbsp; drive" style="text;html=1;align=center;verticalAlign=middle;resizable=0;points=[];autosize=1;strokeColor=none;fillColor=none;fontSize=14;fontFamily=Helvetica;fontColor=default;rotation=0;" vertex="1" parent="z_jNy_ZaxBvfYAeNrPN4-122">
          <mxGeometry x="978" y="99" width="107" height="29" as="geometry" />
        </mxCell>
        <mxCell id="z_jNy_ZaxBvfYAeNrPN4-135" value="" style="edgeStyle=segmentEdgeStyle;endArrow=classic;html=1;rounded=0;labelBackgroundColor=default;strokeColor=default;fontFamily=Helvetica;fontSize=14;fontColor=default;shape=connector;curved=1;entryX=0;entryY=0.25;entryDx=0;entryDy=0;exitX=1;exitY=0.5;exitDx=0;exitDy=0;" edge="1" parent="z_jNy_ZaxBvfYAeNrPN4-122" source="z_jNy_ZaxBvfYAeNrPN4-149" target="z_jNy_ZaxBvfYAeNrPN4-132">
          <mxGeometry width="50" height="50" relative="1" as="geometry">
            <mxPoint x="798" y="162" as="sourcePoint" />
            <mxPoint x="952.15" y="353.25" as="targetPoint" />
            <Array as="points">
              <mxPoint x="902" y="153" />
            </Array>
          </mxGeometry>
        </mxCell>
        <mxCell id="z_jNy_ZaxBvfYAeNrPN4-136" value="select eligible students" style="text;html=1;align=center;verticalAlign=middle;resizable=0;points=[];autosize=1;strokeColor=none;fillColor=none;fontSize=14;fontFamily=Helvetica;fontColor=default;rotation=-15;" vertex="1" parent="z_jNy_ZaxBvfYAeNrPN4-122">
          <mxGeometry x="955" y="180" width="159" height="29" as="geometry" />
        </mxCell>
        <mxCell id="z_jNy_ZaxBvfYAeNrPN4-138" value="student data" style="shape=partialRectangle;whiteSpace=wrap;html=1;left=0;right=0;fillColor=none;fontFamily=Helvetica;fontSize=14;fontColor=default;" vertex="1" parent="z_jNy_ZaxBvfYAeNrPN4-122">
          <mxGeometry x="525" y="16" width="120" height="42" as="geometry" />
        </mxCell>
        <mxCell id="z_jNy_ZaxBvfYAeNrPN4-140" value="view posted drive" style="text;html=1;align=center;verticalAlign=middle;resizable=0;points=[];autosize=1;strokeColor=none;fillColor=none;fontSize=14;fontFamily=Helvetica;fontColor=default;rotation=25;" vertex="1" parent="z_jNy_ZaxBvfYAeNrPN4-122">
          <mxGeometry x="137" y="182" width="126" height="29" as="geometry" />
        </mxCell>
        <mxCell id="z_jNy_ZaxBvfYAeNrPN4-141" value="apply for drive" style="ellipse;whiteSpace=wrap;html=1;aspect=fixed;fontFamily=Helvetica;fontSize=14;fontColor=default;" vertex="1" parent="z_jNy_ZaxBvfYAeNrPN4-122">
          <mxGeometry x="318" y="222.25" width="80" height="80" as="geometry" />
        </mxCell>
        <mxCell id="z_jNy_ZaxBvfYAeNrPN4-142" style="edgeStyle=none;shape=connector;curved=1;rounded=0;orthogonalLoop=1;jettySize=auto;html=1;exitX=0.75;exitY=1;exitDx=0;exitDy=0;labelBackgroundColor=default;strokeColor=default;fontFamily=Helvetica;fontSize=14;fontColor=default;endArrow=classic;entryX=0;entryY=0.5;entryDx=0;entryDy=0;" edge="1" parent="z_jNy_ZaxBvfYAeNrPN4-122" source="z_jNy_ZaxBvfYAeNrPN4-124" target="z_jNy_ZaxBvfYAeNrPN4-141">
          <mxGeometry relative="1" as="geometry">
            <mxPoint x="314" y="273" as="targetPoint" />
          </mxGeometry>
        </mxCell>
        <mxCell id="z_jNy_ZaxBvfYAeNrPN4-143" value="&lt;span style=&quot;&quot;&gt;Manage Profile&amp;nbsp;&lt;/span&gt;" style="ellipse;whiteSpace=wrap;html=1;aspect=fixed;fontFamily=Helvetica;fontSize=14;fontColor=default;" vertex="1" parent="z_jNy_ZaxBvfYAeNrPN4-122">
          <mxGeometry x="226" y="8" width="80" height="80" as="geometry" />
        </mxCell>
        <mxCell id="z_jNy_ZaxBvfYAeNrPN4-144" style="edgeStyle=none;shape=connector;curved=1;rounded=0;orthogonalLoop=1;jettySize=auto;html=1;exitX=0;exitY=0.75;exitDx=0;exitDy=0;entryX=0.977;entryY=0.373;entryDx=0;entryDy=0;entryPerimeter=0;labelBackgroundColor=default;strokeColor=default;fontFamily=Helvetica;fontSize=14;fontColor=default;endArrow=classic;" edge="1" parent="z_jNy_ZaxBvfYAeNrPN4-122" source="z_jNy_ZaxBvfYAeNrPN4-138" target="z_jNy_ZaxBvfYAeNrPN4-143">
          <mxGeometry relative="1" as="geometry" />
        </mxCell>
        <mxCell id="z_jNy_ZaxBvfYAeNrPN4-145" value="fetch data" style="text;html=1;align=center;verticalAlign=middle;resizable=0;points=[];autosize=1;strokeColor=none;fillColor=none;fontSize=14;fontFamily=Helvetica;fontColor=default;" vertex="1" parent="z_jNy_ZaxBvfYAeNrPN4-122">
          <mxGeometry x="335" y="8" width="80" height="29" as="geometry" />
        </mxCell>
        <mxCell id="z_jNy_ZaxBvfYAeNrPN4-146" value="view or download" style="text;html=1;align=center;verticalAlign=middle;resizable=0;points=[];autosize=1;strokeColor=none;fillColor=none;fontSize=14;fontFamily=Helvetica;fontColor=default;rotation=-20;" vertex="1" parent="z_jNy_ZaxBvfYAeNrPN4-122">
          <mxGeometry x="46" y="25" width="126" height="29" as="geometry" />
        </mxCell>
        <mxCell id="z_jNy_ZaxBvfYAeNrPN4-147" value="drive data" style="shape=partialRectangle;whiteSpace=wrap;html=1;left=0;right=0;fillColor=none;fontFamily=Helvetica;fontSize=14;fontColor=default;" vertex="1" parent="z_jNy_ZaxBvfYAeNrPN4-122">
          <mxGeometry x="522" y="166" width="120" height="43" as="geometry" />
        </mxCell>
        <mxCell id="z_jNy_ZaxBvfYAeNrPN4-148" style="edgeStyle=none;shape=connector;curved=1;rounded=0;orthogonalLoop=1;jettySize=auto;html=1;exitX=1;exitY=0;exitDx=0;exitDy=0;entryX=0;entryY=0.5;entryDx=0;entryDy=0;labelBackgroundColor=default;strokeColor=default;fontFamily=Helvetica;fontSize=14;fontColor=default;endArrow=classic;" edge="1" parent="z_jNy_ZaxBvfYAeNrPN4-122" source="z_jNy_ZaxBvfYAeNrPN4-141" target="z_jNy_ZaxBvfYAeNrPN4-147">
          <mxGeometry relative="1" as="geometry" />
        </mxCell>
        <mxCell id="z_jNy_ZaxBvfYAeNrPN4-149" value="manage drive" style="ellipse;whiteSpace=wrap;html=1;aspect=fixed;fontFamily=Helvetica;fontSize=14;fontColor=default;" vertex="1" parent="z_jNy_ZaxBvfYAeNrPN4-122">
          <mxGeometry x="822" y="123" width="133" height="133" as="geometry" />
        </mxCell>
        <mxCell id="z_jNy_ZaxBvfYAeNrPN4-150" style="edgeStyle=none;shape=connector;curved=1;rounded=0;orthogonalLoop=1;jettySize=auto;html=1;exitX=1;exitY=1;exitDx=0;exitDy=0;entryX=0.5;entryY=0;entryDx=0;entryDy=0;labelBackgroundColor=default;strokeColor=default;fontFamily=Helvetica;fontSize=14;fontColor=default;endArrow=classic;" edge="1" parent="z_jNy_ZaxBvfYAeNrPN4-122" source="z_jNy_ZaxBvfYAeNrPN4-138" target="z_jNy_ZaxBvfYAeNrPN4-149">
          <mxGeometry relative="1" as="geometry" />
        </mxCell>
        <mxCell id="z_jNy_ZaxBvfYAeNrPN4-151" style="edgeStyle=none;shape=connector;curved=1;rounded=0;orthogonalLoop=1;jettySize=auto;html=1;exitX=1;exitY=0.25;exitDx=0;exitDy=0;labelBackgroundColor=default;strokeColor=default;fontFamily=Helvetica;fontSize=14;fontColor=default;endArrow=classic;" edge="1" parent="z_jNy_ZaxBvfYAeNrPN4-122" source="z_jNy_ZaxBvfYAeNrPN4-147" target="z_jNy_ZaxBvfYAeNrPN4-149">
          <mxGeometry relative="1" as="geometry" />
        </mxCell>
        <mxCell id="z_jNy_ZaxBvfYAeNrPN4-152" value="student list" style="text;html=1;align=center;verticalAlign=middle;resizable=0;points=[];autosize=1;strokeColor=none;fillColor=none;fontSize=14;fontFamily=Helvetica;fontColor=default;rotation=0;" vertex="1" parent="z_jNy_ZaxBvfYAeNrPN4-122">
          <mxGeometry x="688" y="182" width="85" height="29" as="geometry" />
        </mxCell>
        <mxCell id="z_jNy_ZaxBvfYAeNrPN4-153" value="view list" style="text;html=1;align=center;verticalAlign=middle;resizable=0;points=[];autosize=1;strokeColor=none;fillColor=none;fontSize=14;fontFamily=Helvetica;fontColor=default;" vertex="1" parent="z_jNy_ZaxBvfYAeNrPN4-122">
          <mxGeometry x="975.15" y="148.5" width="67" height="29" as="geometry" />
        </mxCell>
        <mxCell id="z_jNy_ZaxBvfYAeNrPN4-154" style="edgeStyle=none;shape=connector;curved=1;rounded=0;orthogonalLoop=1;jettySize=auto;html=1;exitX=-0.01;exitY=0.325;exitDx=0;exitDy=0;entryX=0.5;entryY=0;entryDx=0;entryDy=0;labelBackgroundColor=default;strokeColor=default;fontFamily=Helvetica;fontSize=14;fontColor=default;endArrow=classic;exitPerimeter=0;" edge="1" parent="z_jNy_ZaxBvfYAeNrPN4-122" source="z_jNy_ZaxBvfYAeNrPN4-149" target="z_jNy_ZaxBvfYAeNrPN4-147">
          <mxGeometry relative="1" as="geometry">
            <mxPoint x="862.9999999999859" y="73.75" as="sourcePoint" />
          </mxGeometry>
        </mxCell>
        <mxCell id="z_jNy_ZaxBvfYAeNrPN4-156" style="edgeStyle=none;shape=connector;curved=1;rounded=0;orthogonalLoop=1;jettySize=auto;html=1;exitX=0.379;exitY=0.987;exitDx=0;exitDy=0;entryX=0.75;entryY=1;entryDx=0;entryDy=0;labelBackgroundColor=default;strokeColor=default;fontFamily=Helvetica;fontSize=14;fontColor=default;endArrow=classic;exitPerimeter=0;" edge="1" parent="z_jNy_ZaxBvfYAeNrPN4-122" source="z_jNy_ZaxBvfYAeNrPN4-149" target="z_jNy_ZaxBvfYAeNrPN4-147">
          <mxGeometry relative="1" as="geometry" />
        </mxCell>
        <mxCell id="z_jNy_ZaxBvfYAeNrPN4-161" style="edgeStyle=none;shape=connector;curved=1;rounded=0;orthogonalLoop=1;jettySize=auto;html=1;exitX=0.371;exitY=0.006;exitDx=0;exitDy=0;labelBackgroundColor=default;strokeColor=default;fontFamily=Helvetica;fontSize=14;fontColor=default;endArrow=classic;entryX=1;entryY=0.5;entryDx=0;entryDy=0;exitPerimeter=0;" edge="1" parent="z_jNy_ZaxBvfYAeNrPN4-122" source="z_jNy_ZaxBvfYAeNrPN4-162" target="z_jNy_ZaxBvfYAeNrPN4-182">
          <mxGeometry relative="1" as="geometry">
            <mxPoint x="897" y="487" as="targetPoint" />
          </mxGeometry>
        </mxCell>
        <mxCell id="z_jNy_ZaxBvfYAeNrPN4-162" value="Coordinator" style="rounded=0;whiteSpace=wrap;html=1;fontSize=24;" vertex="1" parent="z_jNy_ZaxBvfYAeNrPN4-122">
          <mxGeometry x="927.25" y="745.6500000000001" width="148" height="60" as="geometry" />
        </mxCell>
        <mxCell id="z_jNy_ZaxBvfYAeNrPN4-164" style="edgeStyle=none;shape=connector;curved=1;rounded=0;orthogonalLoop=1;jettySize=auto;html=1;entryX=0.25;entryY=0;entryDx=0;entryDy=0;labelBackgroundColor=default;strokeColor=default;fontFamily=Helvetica;fontSize=14;fontColor=default;endArrow=classic;" edge="1" parent="z_jNy_ZaxBvfYAeNrPN4-122" source="z_jNy_ZaxBvfYAeNrPN4-182" target="z_jNy_ZaxBvfYAeNrPN4-162">
          <mxGeometry relative="1" as="geometry">
            <mxPoint x="923.0317459305204" y="528.4317459305205" as="sourcePoint" />
          </mxGeometry>
        </mxCell>
        <mxCell id="z_jNy_ZaxBvfYAeNrPN4-165" value="" style="edgeStyle=segmentEdgeStyle;endArrow=classic;html=1;rounded=0;labelBackgroundColor=default;strokeColor=default;fontFamily=Helvetica;fontSize=14;fontColor=default;shape=connector;curved=1;entryX=0;entryY=0.25;entryDx=0;entryDy=0;exitX=0.382;exitY=0.978;exitDx=0;exitDy=0;exitPerimeter=0;" edge="1" parent="z_jNy_ZaxBvfYAeNrPN4-122" source="z_jNy_ZaxBvfYAeNrPN4-182" target="z_jNy_ZaxBvfYAeNrPN4-162">
          <mxGeometry width="50" height="50" relative="1" as="geometry">
            <mxPoint x="853.2500000000002" y="560.35870521522" as="sourcePoint" />
            <mxPoint x="867.25" y="778.6500000000001" as="targetPoint" />
            <Array as="points">
              <mxPoint x="741" y="557" />
              <mxPoint x="741" y="756" />
              <mxPoint x="927" y="756" />
            </Array>
          </mxGeometry>
        </mxCell>
        <mxCell id="z_jNy_ZaxBvfYAeNrPN4-166" value="" style="edgeStyle=segmentEdgeStyle;endArrow=classic;html=1;rounded=0;labelBackgroundColor=default;strokeColor=default;fontFamily=Helvetica;fontSize=14;fontColor=default;shape=connector;curved=1;exitX=1;exitY=0;exitDx=0;exitDy=0;entryX=0.3;entryY=0.963;entryDx=0;entryDy=0;entryPerimeter=0;" edge="1" parent="z_jNy_ZaxBvfYAeNrPN4-122" source="z_jNy_ZaxBvfYAeNrPN4-162" target="z_jNy_ZaxBvfYAeNrPN4-192">
          <mxGeometry width="50" height="50" relative="1" as="geometry">
            <mxPoint x="1040.25" y="610.6500000000001" as="sourcePoint" />
            <mxPoint x="1051" y="522" as="targetPoint" />
            <Array as="points">
              <mxPoint x="1081" y="746" />
              <mxPoint x="1081" y="548" />
              <mxPoint x="1084" y="548" />
              <mxPoint x="1084" y="410" />
            </Array>
          </mxGeometry>
        </mxCell>
        <mxCell id="z_jNy_ZaxBvfYAeNrPN4-167" value="add flag&lt;br&gt;" style="text;html=1;align=center;verticalAlign=middle;resizable=0;points=[];autosize=1;strokeColor=none;fillColor=none;fontSize=14;fontFamily=Helvetica;fontColor=default;rotation=90;" vertex="1" parent="z_jNy_ZaxBvfYAeNrPN4-122">
          <mxGeometry x="1067" y="602" width="68" height="29" as="geometry" />
        </mxCell>
        <mxCell id="z_jNy_ZaxBvfYAeNrPN4-169" value="view students and approve&amp;nbsp;" style="text;html=1;align=center;verticalAlign=middle;resizable=0;points=[];autosize=1;strokeColor=none;fillColor=none;fontSize=14;fontFamily=Helvetica;fontColor=default;rotation=75;" vertex="1" parent="z_jNy_ZaxBvfYAeNrPN4-122">
          <mxGeometry x="682" y="649" width="188" height="29" as="geometry" />
        </mxCell>
        <mxCell id="z_jNy_ZaxBvfYAeNrPN4-171" style="edgeStyle=none;shape=connector;curved=1;rounded=0;orthogonalLoop=1;jettySize=auto;html=1;labelBackgroundColor=default;strokeColor=default;fontFamily=Helvetica;fontSize=14;fontColor=default;endArrow=classic;entryX=0.021;entryY=0.663;entryDx=0;entryDy=0;entryPerimeter=0;" edge="1" parent="z_jNy_ZaxBvfYAeNrPN4-122" target="z_jNy_ZaxBvfYAeNrPN4-192">
          <mxGeometry relative="1" as="geometry">
            <mxPoint x="539.2842712474617" y="748.7842712474621" as="targetPoint" />
            <mxPoint x="1001" y="741" as="sourcePoint" />
          </mxGeometry>
        </mxCell>
        <mxCell id="z_jNy_ZaxBvfYAeNrPN4-172" style="edgeStyle=none;shape=connector;curved=1;rounded=0;orthogonalLoop=1;jettySize=auto;html=1;labelBackgroundColor=default;strokeColor=default;fontFamily=Helvetica;fontSize=14;fontColor=default;endArrow=classic;" edge="1" parent="z_jNy_ZaxBvfYAeNrPN4-122" source="z_jNy_ZaxBvfYAeNrPN4-182">
          <mxGeometry relative="1" as="geometry">
            <mxPoint x="883" y="412" as="sourcePoint" />
            <mxPoint x="877" y="258" as="targetPoint" />
          </mxGeometry>
        </mxCell>
        <mxCell id="z_jNy_ZaxBvfYAeNrPN4-174" value="add detail&lt;br&gt;" style="text;html=1;align=center;verticalAlign=middle;resizable=0;points=[];autosize=1;strokeColor=none;fillColor=none;fontSize=14;fontFamily=Helvetica;fontColor=default;rotation=0;" vertex="1" parent="z_jNy_ZaxBvfYAeNrPN4-122">
          <mxGeometry x="680" y="123" width="79" height="29" as="geometry" />
        </mxCell>
        <mxCell id="z_jNy_ZaxBvfYAeNrPN4-182" value="Manage Drive" style="ellipse;whiteSpace=wrap;html=1;aspect=fixed;fontFamily=Helvetica;fontSize=14;fontColor=default;" vertex="1" parent="z_jNy_ZaxBvfYAeNrPN4-122">
          <mxGeometry x="655" y="421" width="139" height="139" as="geometry" />
        </mxCell>
        <mxCell id="z_jNy_ZaxBvfYAeNrPN4-185" value="send list" style="text;html=1;align=center;verticalAlign=middle;resizable=0;points=[];autosize=1;strokeColor=none;fillColor=none;fontSize=14;fontFamily=Helvetica;fontColor=default;rotation=-48;" vertex="1" parent="z_jNy_ZaxBvfYAeNrPN4-122">
          <mxGeometry x="773" y="375" width="69" height="29" as="geometry" />
        </mxCell>
        <mxCell id="z_jNy_ZaxBvfYAeNrPN4-186" value="&lt;span style=&quot;&quot;&gt;post result&lt;/span&gt;" style="text;html=1;align=center;verticalAlign=middle;resizable=0;points=[];autosize=1;strokeColor=none;fillColor=none;fontSize=14;fontFamily=Helvetica;fontColor=default;" vertex="1" parent="z_jNy_ZaxBvfYAeNrPN4-122">
          <mxGeometry x="666" y="227" width="83" height="29" as="geometry" />
        </mxCell>
        <mxCell id="z_jNy_ZaxBvfYAeNrPN4-190" value="" style="group" vertex="1" connectable="0" parent="z_jNy_ZaxBvfYAeNrPN4-122">
          <mxGeometry x="1000.0000000000001" y="217" width="254.9999999999999" height="339" as="geometry" />
        </mxCell>
        <mxCell id="z_jNy_ZaxBvfYAeNrPN4-192" value="&lt;span style=&quot;&quot;&gt;give feedback and query&lt;/span&gt;" style="ellipse;whiteSpace=wrap;html=1;aspect=fixed;fontFamily=Helvetica;fontSize=14;fontColor=default;" vertex="1" parent="z_jNy_ZaxBvfYAeNrPN4-190">
          <mxGeometry x="38.000000000000085" y="116" width="80" height="80" as="geometry" />
        </mxCell>
        <mxCell id="z_jNy_ZaxBvfYAeNrPN4-191" value="feedbacks or queries data" style="shape=partialRectangle;whiteSpace=wrap;html=1;left=0;right=0;fillColor=none;fontFamily=Helvetica;fontSize=14;fontColor=default;" vertex="1" parent="z_jNy_ZaxBvfYAeNrPN4-190">
          <mxGeometry x="134.9999999999999" y="241" width="120" height="38" as="geometry" />
        </mxCell>
        <mxCell id="z_jNy_ZaxBvfYAeNrPN4-202" style="edgeStyle=none;shape=connector;curved=1;rounded=0;orthogonalLoop=1;jettySize=auto;html=1;exitX=1;exitY=0.5;exitDx=0;exitDy=0;entryX=0.593;entryY=-0.066;entryDx=0;entryDy=0;entryPerimeter=0;labelBackgroundColor=default;strokeColor=default;fontFamily=Helvetica;fontSize=14;fontColor=default;endArrow=classic;" edge="1" parent="z_jNy_ZaxBvfYAeNrPN4-190" source="z_jNy_ZaxBvfYAeNrPN4-192" target="z_jNy_ZaxBvfYAeNrPN4-191">
          <mxGeometry relative="1" as="geometry" />
        </mxCell>
        <mxCell id="z_jNy_ZaxBvfYAeNrPN4-163" value="&lt;br&gt;&amp;nbsp;notice" style="text;html=1;align=center;verticalAlign=middle;resizable=0;points=[];autosize=1;strokeColor=none;fillColor=none;fontSize=14;fontFamily=Helvetica;fontColor=default;rotation=0;" vertex="1" parent="z_jNy_ZaxBvfYAeNrPN4-190">
          <mxGeometry x="-34.000000000000114" y="273" width="59" height="46" as="geometry" />
        </mxCell>
        <mxCell id="z_jNy_ZaxBvfYAeNrPN4-184" value="&lt;span style=&quot;&quot;&gt;view student detail&lt;/span&gt;" style="text;html=1;align=center;verticalAlign=middle;resizable=0;points=[];autosize=1;strokeColor=none;fillColor=none;fontSize=14;fontFamily=Helvetica;fontColor=default;rotation=45;" vertex="1" parent="z_jNy_ZaxBvfYAeNrPN4-122">
          <mxGeometry x="755" y="593" width="133" height="29" as="geometry" />
        </mxCell>
        <mxCell id="z_jNy_ZaxBvfYAeNrPN4-183" value="&lt;span style=&quot;&quot;&gt;send student list to recruiter&lt;/span&gt;" style="text;html=1;align=center;verticalAlign=middle;resizable=0;points=[];autosize=1;strokeColor=none;fillColor=none;fontSize=14;fontFamily=Helvetica;fontColor=default;rotation=55;" vertex="1" parent="z_jNy_ZaxBvfYAeNrPN4-210">
          <mxGeometry x="784" y="566" width="190" height="29" as="geometry" />
        </mxCell>
        <mxCell id="z_jNy_ZaxBvfYAeNrPN4-203" value="feedback" style="text;html=1;align=center;verticalAlign=middle;resizable=0;points=[];autosize=1;strokeColor=none;fillColor=none;fontSize=14;fontFamily=Helvetica;fontColor=default;" vertex="1" parent="z_jNy_ZaxBvfYAeNrPN4-210">
          <mxGeometry x="1175" y="212" width="75" height="29" as="geometry" />
        </mxCell>
        <mxCell id="z_jNy_ZaxBvfYAeNrPN4-211" value="&lt;span style=&quot;font-size: 36px;&quot;&gt;DFD LEVEL-0&lt;/span&gt;" style="text;html=1;align=center;verticalAlign=middle;resizable=0;points=[];autosize=1;strokeColor=none;fillColor=none;fontSize=14;fontFamily=Helvetica;fontColor=default;" vertex="1" parent="1">
          <mxGeometry x="248" y="35" width="246" height="55" as="geometry" />
        </mxCell>
        <mxCell id="z_jNy_ZaxBvfYAeNrPN4-212" value="DFD LEVEL-1" style="text;html=1;align=center;verticalAlign=middle;resizable=0;points=[];autosize=1;strokeColor=none;fillColor=none;fontSize=36;fontFamily=Helvetica;fontColor=default;" vertex="1" parent="1">
          <mxGeometry x="229" y="928" width="246" height="55" as="geometry" />
        </mxCell>
        <mxCell id="z_jNy_ZaxBvfYAeNrPN4-213" value="DFD LEVEL-2" style="text;html=1;align=center;verticalAlign=middle;resizable=0;points=[];autosize=1;strokeColor=none;fillColor=none;fontSize=36;fontFamily=Helvetica;fontColor=default;" vertex="1" parent="1">
          <mxGeometry x="246" y="1941" width="246" height="55" as="geometry" />
        </mxCell>
        <mxCell id="z_jNy_ZaxBvfYAeNrPN4-214" value="" style="swimlane;startSize=0;fontFamily=Helvetica;fontSize=36;fontColor=default;" vertex="1" parent="1">
          <mxGeometry x="248" y="3080" width="414" height="753" as="geometry" />
        </mxCell>
        <mxCell id="z_jNy_ZaxBvfYAeNrPN4-215" value="&lt;span style=&quot;&quot;&gt;view drive and&lt;/span&gt;&lt;br style=&quot;&quot;&gt;&lt;span style=&quot;&quot;&gt;applied student details&lt;/span&gt;" style="ellipse;whiteSpace=wrap;html=1;aspect=fixed;fontFamily=Helvetica;fontSize=14;fontColor=default;" vertex="1" parent="z_jNy_ZaxBvfYAeNrPN4-214">
          <mxGeometry x="245" y="361" width="103" height="103" as="geometry" />
        </mxCell>
        <mxCell id="z_jNy_ZaxBvfYAeNrPN4-216" value="create notice" style="ellipse;whiteSpace=wrap;html=1;aspect=fixed;fontFamily=Helvetica;fontSize=14;fontColor=default;" vertex="1" parent="z_jNy_ZaxBvfYAeNrPN4-214">
          <mxGeometry x="253" y="578" width="80" height="80" as="geometry" />
        </mxCell>
        <mxCell id="z_jNy_ZaxBvfYAeNrPN4-217" value="&lt;span style=&quot;&quot;&gt;view student detail&lt;/span&gt;" style="ellipse;whiteSpace=wrap;html=1;aspect=fixed;fontFamily=Helvetica;fontSize=14;fontColor=default;" vertex="1" parent="z_jNy_ZaxBvfYAeNrPN4-214">
          <mxGeometry x="274" y="464" width="88" height="88" as="geometry" />
        </mxCell>
        <mxCell id="z_jNy_ZaxBvfYAeNrPN4-265" style="edgeStyle=none;shape=connector;curved=1;rounded=0;orthogonalLoop=1;jettySize=auto;html=1;exitX=0;exitY=1;exitDx=0;exitDy=0;entryX=1;entryY=0.5;entryDx=0;entryDy=0;labelBackgroundColor=default;strokeColor=default;fontFamily=Helvetica;fontSize=24;fontColor=default;endArrow=classic;" edge="1" parent="z_jNy_ZaxBvfYAeNrPN4-214" source="z_jNy_ZaxBvfYAeNrPN4-218" target="z_jNy_ZaxBvfYAeNrPN4-231">
          <mxGeometry relative="1" as="geometry" />
        </mxCell>
        <mxCell id="z_jNy_ZaxBvfYAeNrPN4-218" value="&lt;span style=&quot;color: rgb(0, 0, 0); font-family: Helvetica; font-size: 14px; font-style: normal; font-variant-ligatures: normal; font-variant-caps: normal; font-weight: 400; letter-spacing: normal; orphans: 2; text-align: center; text-indent: 0px; text-transform: none; widows: 2; word-spacing: 0px; -webkit-text-stroke-width: 0px; background-color: rgb(248, 249, 250); text-decoration-thickness: initial; text-decoration-style: initial; text-decoration-color: initial; float: none; display: inline !important;&quot;&gt;send student list to recruiter&lt;/span&gt;" style="ellipse;whiteSpace=wrap;html=1;aspect=fixed;fontFamily=Helvetica;fontSize=14;fontColor=default;" vertex="1" parent="z_jNy_ZaxBvfYAeNrPN4-214">
          <mxGeometry x="211" y="281" width="80" height="80" as="geometry" />
        </mxCell>
        <mxCell id="z_jNy_ZaxBvfYAeNrPN4-219" value="&lt;span style=&quot;color: rgb(0, 0, 0); font-family: Helvetica; font-size: 14px; font-style: normal; font-variant-ligatures: normal; font-variant-caps: normal; font-weight: 400; letter-spacing: normal; orphans: 2; text-align: center; text-indent: 0px; text-transform: none; widows: 2; word-spacing: 0px; -webkit-text-stroke-width: 0px; background-color: rgb(248, 249, 250); text-decoration-thickness: initial; text-decoration-style: initial; text-decoration-color: initial; float: none; display: inline !important;&quot;&gt;give red flag&lt;/span&gt;" style="ellipse;whiteSpace=wrap;html=1;aspect=fixed;fontFamily=Helvetica;fontSize=14;fontColor=default;" vertex="1" parent="z_jNy_ZaxBvfYAeNrPN4-214">
          <mxGeometry x="322" y="146" width="80" height="80" as="geometry" />
        </mxCell>
        <mxCell id="z_jNy_ZaxBvfYAeNrPN4-268" style="edgeStyle=none;shape=connector;curved=1;rounded=0;orthogonalLoop=1;jettySize=auto;html=1;exitX=1;exitY=0.5;exitDx=0;exitDy=0;labelBackgroundColor=default;strokeColor=default;fontFamily=Helvetica;fontSize=24;fontColor=default;endArrow=classic;" edge="1" parent="z_jNy_ZaxBvfYAeNrPN4-214" source="z_jNy_ZaxBvfYAeNrPN4-229" target="z_jNy_ZaxBvfYAeNrPN4-215">
          <mxGeometry relative="1" as="geometry" />
        </mxCell>
        <mxCell id="z_jNy_ZaxBvfYAeNrPN4-229" value="new drive creation" style="ellipse;whiteSpace=wrap;html=1;aspect=fixed;fontFamily=Helvetica;fontSize=14;fontColor=default;" vertex="1" parent="z_jNy_ZaxBvfYAeNrPN4-214">
          <mxGeometry x="23" y="623" width="80" height="80" as="geometry" />
        </mxCell>
        <mxCell id="z_jNy_ZaxBvfYAeNrPN4-266" style="edgeStyle=none;shape=connector;curved=1;rounded=0;orthogonalLoop=1;jettySize=auto;html=1;exitX=0.5;exitY=0;exitDx=0;exitDy=0;labelBackgroundColor=default;strokeColor=default;fontFamily=Helvetica;fontSize=24;fontColor=default;endArrow=classic;" edge="1" parent="z_jNy_ZaxBvfYAeNrPN4-214" source="z_jNy_ZaxBvfYAeNrPN4-231" target="z_jNy_ZaxBvfYAeNrPN4-232">
          <mxGeometry relative="1" as="geometry" />
        </mxCell>
        <mxCell id="z_jNy_ZaxBvfYAeNrPN4-231" value="get applied student list" style="ellipse;whiteSpace=wrap;html=1;aspect=fixed;fontFamily=Helvetica;fontSize=14;fontColor=default;" vertex="1" parent="z_jNy_ZaxBvfYAeNrPN4-214">
          <mxGeometry x="41" y="424" width="80" height="80" as="geometry" />
        </mxCell>
        <mxCell id="z_jNy_ZaxBvfYAeNrPN4-255" style="edgeStyle=none;shape=connector;curved=1;rounded=0;orthogonalLoop=1;jettySize=auto;html=1;exitX=0.5;exitY=0;exitDx=0;exitDy=0;entryX=0.787;entryY=0.935;entryDx=0;entryDy=0;entryPerimeter=0;labelBackgroundColor=default;strokeColor=default;fontFamily=Helvetica;fontSize=24;fontColor=default;endArrow=classic;" edge="1" parent="z_jNy_ZaxBvfYAeNrPN4-214" source="z_jNy_ZaxBvfYAeNrPN4-232" target="z_jNy_ZaxBvfYAeNrPN4-245">
          <mxGeometry relative="1" as="geometry" />
        </mxCell>
        <mxCell id="z_jNy_ZaxBvfYAeNrPN4-232" value="post result" style="ellipse;whiteSpace=wrap;html=1;aspect=fixed;fontFamily=Helvetica;fontSize=14;fontColor=default;" vertex="1" parent="z_jNy_ZaxBvfYAeNrPN4-214">
          <mxGeometry x="52" y="330" width="80" height="80" as="geometry" />
        </mxCell>
        <mxCell id="z_jNy_ZaxBvfYAeNrPN4-267" style="edgeStyle=none;shape=connector;curved=1;rounded=0;orthogonalLoop=1;jettySize=auto;html=1;exitX=1;exitY=0.5;exitDx=0;exitDy=0;labelBackgroundColor=default;strokeColor=default;fontFamily=Helvetica;fontSize=24;fontColor=default;endArrow=classic;" edge="1" parent="z_jNy_ZaxBvfYAeNrPN4-214" source="z_jNy_ZaxBvfYAeNrPN4-233" target="z_jNy_ZaxBvfYAeNrPN4-216">
          <mxGeometry relative="1" as="geometry" />
        </mxCell>
        <mxCell id="z_jNy_ZaxBvfYAeNrPN4-233" value="&lt;span style=&quot;&quot;&gt;give feedback and query&lt;/span&gt;" style="ellipse;whiteSpace=wrap;html=1;aspect=fixed;fontFamily=Helvetica;fontSize=14;fontColor=default;" vertex="1" parent="z_jNy_ZaxBvfYAeNrPN4-214">
          <mxGeometry x="34.000000000000114" y="515" width="80" height="80" as="geometry" />
        </mxCell>
        <mxCell id="z_jNy_ZaxBvfYAeNrPN4-242" value="get resume" style="ellipse;whiteSpace=wrap;html=1;aspect=fixed;fontFamily=Helvetica;fontSize=14;fontColor=default;" vertex="1" parent="z_jNy_ZaxBvfYAeNrPN4-214">
          <mxGeometry x="114" y="13" width="80" height="80" as="geometry" />
        </mxCell>
        <mxCell id="z_jNy_ZaxBvfYAeNrPN4-270" style="edgeStyle=none;shape=connector;curved=1;rounded=0;orthogonalLoop=1;jettySize=auto;html=1;exitX=1;exitY=0.5;exitDx=0;exitDy=0;labelBackgroundColor=default;strokeColor=default;fontFamily=Helvetica;fontSize=24;fontColor=default;endArrow=classic;" edge="1" parent="z_jNy_ZaxBvfYAeNrPN4-214" source="z_jNy_ZaxBvfYAeNrPN4-243" target="z_jNy_ZaxBvfYAeNrPN4-242">
          <mxGeometry relative="1" as="geometry" />
        </mxCell>
        <mxCell id="z_jNy_ZaxBvfYAeNrPN4-243" value="edit or update profile" style="ellipse;whiteSpace=wrap;html=1;aspect=fixed;fontFamily=Helvetica;fontSize=14;fontColor=default;" vertex="1" parent="z_jNy_ZaxBvfYAeNrPN4-214">
          <mxGeometry x="34" y="81" width="80" height="80" as="geometry" />
        </mxCell>
        <mxCell id="z_jNy_ZaxBvfYAeNrPN4-269" style="edgeStyle=none;shape=connector;curved=1;rounded=0;orthogonalLoop=1;jettySize=auto;html=1;exitX=1;exitY=0.5;exitDx=0;exitDy=0;labelBackgroundColor=default;strokeColor=default;fontFamily=Helvetica;fontSize=24;fontColor=default;endArrow=classic;" edge="1" parent="z_jNy_ZaxBvfYAeNrPN4-214" source="z_jNy_ZaxBvfYAeNrPN4-244" target="z_jNy_ZaxBvfYAeNrPN4-218">
          <mxGeometry relative="1" as="geometry" />
        </mxCell>
        <mxCell id="z_jNy_ZaxBvfYAeNrPN4-244" value="apply for drive" style="ellipse;whiteSpace=wrap;html=1;aspect=fixed;fontFamily=Helvetica;fontSize=14;fontColor=default;" vertex="1" parent="z_jNy_ZaxBvfYAeNrPN4-214">
          <mxGeometry x="98" y="152" width="80" height="80" as="geometry" />
        </mxCell>
        <mxCell id="z_jNy_ZaxBvfYAeNrPN4-245" value="get result" style="ellipse;whiteSpace=wrap;html=1;aspect=fixed;fontFamily=Helvetica;fontSize=14;fontColor=default;" vertex="1" parent="z_jNy_ZaxBvfYAeNrPN4-214">
          <mxGeometry x="7" y="205" width="80" height="80" as="geometry" />
        </mxCell>
        <mxCell id="z_jNy_ZaxBvfYAeNrPN4-264" style="edgeStyle=none;shape=connector;curved=1;rounded=0;orthogonalLoop=1;jettySize=auto;html=1;exitX=0;exitY=0;exitDx=0;exitDy=0;labelBackgroundColor=default;strokeColor=default;fontFamily=Helvetica;fontSize=24;fontColor=default;endArrow=classic;" edge="1" parent="z_jNy_ZaxBvfYAeNrPN4-214" source="z_jNy_ZaxBvfYAeNrPN4-218" target="z_jNy_ZaxBvfYAeNrPN4-218">
          <mxGeometry relative="1" as="geometry" />
        </mxCell>
        <mxCell id="z_jNy_ZaxBvfYAeNrPN4-220" value="&lt;font style=&quot;font-size: 24px;&quot;&gt;COORDINATOR&lt;/font&gt;" style="shape=umlActor;verticalLabelPosition=bottom;verticalAlign=top;html=1;outlineConnect=0;fontFamily=Helvetica;fontSize=36;fontColor=default;" vertex="1" parent="1">
          <mxGeometry x="845" y="3388" width="30" height="60" as="geometry" />
        </mxCell>
        <mxCell id="z_jNy_ZaxBvfYAeNrPN4-221" value="" style="endArrow=none;html=1;rounded=0;labelBackgroundColor=default;strokeColor=default;fontFamily=Helvetica;fontSize=36;fontColor=default;shape=connector;curved=1;exitX=1;exitY=0.5;exitDx=0;exitDy=0;" edge="1" parent="1" source="z_jNy_ZaxBvfYAeNrPN4-218" target="z_jNy_ZaxBvfYAeNrPN4-220">
          <mxGeometry width="50" height="50" relative="1" as="geometry">
            <mxPoint x="361" y="3364" as="sourcePoint" />
            <mxPoint x="411" y="3314" as="targetPoint" />
          </mxGeometry>
        </mxCell>
        <mxCell id="z_jNy_ZaxBvfYAeNrPN4-222" value="" style="endArrow=none;html=1;rounded=0;labelBackgroundColor=default;strokeColor=default;fontFamily=Helvetica;fontSize=36;fontColor=default;shape=connector;curved=1;exitX=1;exitY=0.5;exitDx=0;exitDy=0;entryX=0;entryY=1;entryDx=0;entryDy=0;entryPerimeter=0;" edge="1" parent="1" source="z_jNy_ZaxBvfYAeNrPN4-216" target="z_jNy_ZaxBvfYAeNrPN4-220">
          <mxGeometry width="50" height="50" relative="1" as="geometry">
            <mxPoint x="661.0000000000127" y="3344" as="sourcePoint" />
            <mxPoint x="943" y="3366" as="targetPoint" />
            <Array as="points">
              <mxPoint x="778" y="3479" />
            </Array>
          </mxGeometry>
        </mxCell>
        <mxCell id="z_jNy_ZaxBvfYAeNrPN4-223" style="edgeStyle=none;shape=connector;curved=1;rounded=0;orthogonalLoop=1;jettySize=auto;html=1;exitX=1;exitY=0.5;exitDx=0;exitDy=0;entryX=0.25;entryY=0.1;entryDx=0;entryDy=0;entryPerimeter=0;labelBackgroundColor=default;strokeColor=default;fontFamily=Helvetica;fontSize=36;fontColor=default;endArrow=none;" edge="1" parent="1" source="z_jNy_ZaxBvfYAeNrPN4-219" target="z_jNy_ZaxBvfYAeNrPN4-220">
          <mxGeometry relative="1" as="geometry" />
        </mxCell>
        <mxCell id="z_jNy_ZaxBvfYAeNrPN4-226" style="edgeStyle=none;shape=connector;curved=1;rounded=0;orthogonalLoop=1;jettySize=auto;html=1;exitX=1;exitY=0.5;exitDx=0;exitDy=0;labelBackgroundColor=default;strokeColor=default;fontFamily=Helvetica;fontSize=36;fontColor=default;endArrow=none;" edge="1" parent="1" source="z_jNy_ZaxBvfYAeNrPN4-215" target="z_jNy_ZaxBvfYAeNrPN4-220">
          <mxGeometry relative="1" as="geometry" />
        </mxCell>
        <mxCell id="z_jNy_ZaxBvfYAeNrPN4-227" style="edgeStyle=none;shape=connector;curved=1;rounded=0;orthogonalLoop=1;jettySize=auto;html=1;exitX=1;exitY=0;exitDx=0;exitDy=0;labelBackgroundColor=default;strokeColor=default;fontFamily=Helvetica;fontSize=36;fontColor=default;endArrow=none;" edge="1" parent="1" source="z_jNy_ZaxBvfYAeNrPN4-217" target="z_jNy_ZaxBvfYAeNrPN4-220">
          <mxGeometry relative="1" as="geometry" />
        </mxCell>
        <mxCell id="z_jNy_ZaxBvfYAeNrPN4-230" style="edgeStyle=none;shape=connector;curved=1;rounded=0;orthogonalLoop=1;jettySize=auto;html=1;exitX=1;exitY=1;exitDx=0;exitDy=0;exitPerimeter=0;labelBackgroundColor=default;strokeColor=default;fontFamily=Helvetica;fontSize=24;fontColor=default;endArrow=none;" edge="1" parent="1" source="z_jNy_ZaxBvfYAeNrPN4-228" target="z_jNy_ZaxBvfYAeNrPN4-229">
          <mxGeometry relative="1" as="geometry" />
        </mxCell>
        <mxCell id="z_jNy_ZaxBvfYAeNrPN4-235" style="edgeStyle=none;shape=connector;curved=1;rounded=0;orthogonalLoop=1;jettySize=auto;html=1;exitX=0.75;exitY=0.1;exitDx=0;exitDy=0;exitPerimeter=0;entryX=0;entryY=0.5;entryDx=0;entryDy=0;labelBackgroundColor=default;strokeColor=default;fontFamily=Helvetica;fontSize=24;fontColor=default;endArrow=none;" edge="1" parent="1" source="z_jNy_ZaxBvfYAeNrPN4-228" target="z_jNy_ZaxBvfYAeNrPN4-232">
          <mxGeometry relative="1" as="geometry" />
        </mxCell>
        <mxCell id="z_jNy_ZaxBvfYAeNrPN4-236" style="edgeStyle=none;shape=connector;curved=1;rounded=0;orthogonalLoop=1;jettySize=auto;html=1;exitX=1;exitY=0.3333333333333333;exitDx=0;exitDy=0;exitPerimeter=0;entryX=0;entryY=0.5;entryDx=0;entryDy=0;labelBackgroundColor=default;strokeColor=default;fontFamily=Helvetica;fontSize=24;fontColor=default;endArrow=none;" edge="1" parent="1" source="z_jNy_ZaxBvfYAeNrPN4-228" target="z_jNy_ZaxBvfYAeNrPN4-231">
          <mxGeometry relative="1" as="geometry" />
        </mxCell>
        <mxCell id="z_jNy_ZaxBvfYAeNrPN4-228" value="RECRUITER" style="shape=umlActor;verticalLabelPosition=bottom;verticalAlign=top;html=1;outlineConnect=0;fontFamily=Helvetica;fontSize=24;fontColor=default;" vertex="1" parent="1">
          <mxGeometry x="-8" y="3645" width="30" height="60" as="geometry" />
        </mxCell>
        <mxCell id="z_jNy_ZaxBvfYAeNrPN4-239" style="edgeStyle=none;shape=connector;curved=1;rounded=0;orthogonalLoop=1;jettySize=auto;html=1;exitX=0;exitY=0.5;exitDx=0;exitDy=0;entryX=1;entryY=0.3333333333333333;entryDx=0;entryDy=0;entryPerimeter=0;labelBackgroundColor=default;strokeColor=default;fontFamily=Helvetica;fontSize=24;fontColor=default;endArrow=none;" edge="1" parent="1" source="z_jNy_ZaxBvfYAeNrPN4-233" target="z_jNy_ZaxBvfYAeNrPN4-228">
          <mxGeometry relative="1" as="geometry" />
        </mxCell>
        <mxCell id="z_jNy_ZaxBvfYAeNrPN4-247" style="edgeStyle=none;shape=connector;curved=1;rounded=0;orthogonalLoop=1;jettySize=auto;html=1;exitX=0.75;exitY=0.1;exitDx=0;exitDy=0;exitPerimeter=0;labelBackgroundColor=default;strokeColor=default;fontFamily=Helvetica;fontSize=24;fontColor=default;endArrow=none;" edge="1" parent="1" source="z_jNy_ZaxBvfYAeNrPN4-246" target="z_jNy_ZaxBvfYAeNrPN4-242">
          <mxGeometry relative="1" as="geometry" />
        </mxCell>
        <mxCell id="z_jNy_ZaxBvfYAeNrPN4-248" style="edgeStyle=none;shape=connector;curved=1;rounded=0;orthogonalLoop=1;jettySize=auto;html=1;exitX=1;exitY=0.3333333333333333;exitDx=0;exitDy=0;exitPerimeter=0;entryX=0;entryY=0;entryDx=0;entryDy=0;labelBackgroundColor=default;strokeColor=default;fontFamily=Helvetica;fontSize=24;fontColor=default;endArrow=none;" edge="1" parent="1" source="z_jNy_ZaxBvfYAeNrPN4-246" target="z_jNy_ZaxBvfYAeNrPN4-243">
          <mxGeometry relative="1" as="geometry" />
        </mxCell>
        <mxCell id="z_jNy_ZaxBvfYAeNrPN4-246" value="STUDENT" style="shape=umlActor;verticalLabelPosition=bottom;verticalAlign=top;html=1;outlineConnect=0;fontFamily=Helvetica;fontSize=24;fontColor=default;" vertex="1" parent="1">
          <mxGeometry x="6" y="3127" width="30" height="60" as="geometry" />
        </mxCell>
        <mxCell id="z_jNy_ZaxBvfYAeNrPN4-252" style="edgeStyle=none;shape=connector;curved=1;rounded=0;orthogonalLoop=1;jettySize=auto;html=1;exitX=0;exitY=0.5;exitDx=0;exitDy=0;labelBackgroundColor=default;strokeColor=default;fontFamily=Helvetica;fontSize=24;fontColor=default;endArrow=none;entryX=1;entryY=0.3333333333333333;entryDx=0;entryDy=0;entryPerimeter=0;" edge="1" parent="1" source="z_jNy_ZaxBvfYAeNrPN4-244" target="z_jNy_ZaxBvfYAeNrPN4-246">
          <mxGeometry relative="1" as="geometry">
            <mxPoint x="78.01220554644033" y="3162.16893669936" as="targetPoint" />
          </mxGeometry>
        </mxCell>
        <mxCell id="z_jNy_ZaxBvfYAeNrPN4-253" style="edgeStyle=none;shape=connector;curved=1;rounded=0;orthogonalLoop=1;jettySize=auto;html=1;exitX=0;exitY=0.5;exitDx=0;exitDy=0;entryX=0.5;entryY=0.5;entryDx=0;entryDy=0;entryPerimeter=0;labelBackgroundColor=default;strokeColor=default;fontFamily=Helvetica;fontSize=24;fontColor=default;endArrow=none;" edge="1" parent="1" source="z_jNy_ZaxBvfYAeNrPN4-245" target="z_jNy_ZaxBvfYAeNrPN4-246">
          <mxGeometry relative="1" as="geometry" />
        </mxCell>
        <mxCell id="z_jNy_ZaxBvfYAeNrPN4-271" value="&lt;font style=&quot;font-size: 36px;&quot;&gt;USE CASE DIAGRAM&lt;/font&gt;" style="text;html=1;align=center;verticalAlign=middle;resizable=0;points=[];autosize=1;strokeColor=none;fillColor=none;fontSize=24;fontFamily=Helvetica;fontColor=default;" vertex="1" parent="1">
          <mxGeometry x="172" y="2980" width="378" height="55" as="geometry" />
        </mxCell>
      </root>
    </mxGraphModel>
  </diagram>
</mxfile>
